<svg width="54" height="56" viewBox="0 0 54 56" fill="none" xmlns="http://www.w3.org/2000/svg">
<path d="M26.2199 4.11875L19.0569 13.763C18.6796 14.271 18.0841 14.5705 17.4513 14.5705H4.96986C3.32735 14.5705 2.38509 16.4408 3.36261 17.7608L10.6959 27.663C11.0992 28.2076 11.1993 28.9193 10.9619 29.5539L6.29331 42.0363C5.82367 43.292 7.05542 44.5144 8.30749 44.0352C9.3266 43.6452 10.4203 44.3977 10.4203 45.4889V49.946C10.7618 52.5806 12.9365 53.1977 14.2157 53.1877C14.408 53.1862 14.6011 53.1991 14.7928 53.2151C16.6814 53.3727 17.3644 51.1388 17.469 49.946C17.469 48.6169 19.872 47.7399 21.2008 47.7161C21.5541 47.7098 21.8696 47.6474 22.1263 47.56C22.3184 47.4946 22.5159 47.4401 22.715 47.4009C23.4002 47.2656 23.8981 46.8725 24.2539 46.3402C25.2395 44.8654 27.3747 43.5155 28.7917 44.5826L32.7113 47.534C34.0293 48.5265 35.9144 47.5862 35.9144 45.9363V33.9331C35.9144 33.2046 36.3104 32.5338 36.9482 32.1819L38.877 31.1178C40.1212 30.4313 41.6456 31.3313 41.6456 32.7523C41.6456 34.6627 43.3584 36.9684 45.8617 36.5731C47.8643 36.2569 48.4967 33.8942 48.5626 32.7523V22.143L34.777 17.6534C34.1673 17.4548 33.6898 16.976 33.4929 16.3657L29.7289 4.69725C29.2296 3.14934 27.1897 2.81304 26.2199 4.11875Z" fill="url(#paint0_linear_6278_1178)"/>
<path d="M51 22.9368L48.5626 22.143M48.5626 22.143L34.777 17.6534C34.1673 17.4548 33.6898 16.976 33.4929 16.3657L29.7289 4.69725C29.2296 3.14934 27.1897 2.81304 26.2199 4.11875L19.0569 13.763C18.6796 14.271 18.0841 14.5705 17.4513 14.5705H4.96986C3.32735 14.5705 2.38509 16.4408 3.36261 17.7608L10.6959 27.663C11.0992 28.2076 11.1993 28.9193 10.9619 29.5539L6.29331 42.0363C5.82367 43.292 7.05542 44.5144 8.30749 44.0352V44.0352C9.3266 43.6452 10.4203 44.3977 10.4203 45.4889V49.946C10.7618 52.5806 12.9365 53.1977 14.2157 53.1877C14.408 53.1862 14.6011 53.1991 14.7928 53.2151C16.6814 53.3727 17.3644 51.1388 17.469 49.946V49.946C17.469 48.6169 19.872 47.7399 21.2008 47.7161C21.5541 47.7098 21.8696 47.6474 22.1263 47.56C22.3184 47.4946 22.5159 47.4401 22.715 47.4009C23.4002 47.2656 23.8981 46.8725 24.2539 46.3402C25.2395 44.8654 27.3747 43.5155 28.7917 44.5826L32.7113 47.534C34.0293 48.5265 35.9144 47.5862 35.9144 45.9363V33.9331C35.9144 33.2046 36.3104 32.5338 36.9482 32.1819L38.877 31.1178C40.1212 30.4313 41.6456 31.3313 41.6456 32.7523V32.7523C41.6456 34.6627 43.3584 36.9684 45.8617 36.5731C47.8643 36.2569 48.4967 33.8942 48.5626 32.7523V22.143Z" stroke="url(#paint1_linear_6278_1178)" stroke-width="5" stroke-linecap="round"/>
<defs>
<linearGradient id="paint0_linear_6278_1178" x1="1" y1="15.888" x2="42.502" y2="14.6364" gradientUnits="userSpaceOnUse">
<stop offset="0.534342" stop-color="#FFB264"/>
<stop offset="0.536384" stop-color="#FE8165"/>
</linearGradient>
<linearGradient id="paint1_linear_6278_1178" x1="1.98814" y1="19.643" x2="45.8617" y2="18.3254" gradientUnits="userSpaceOnUse">
<stop offset="0.487541" stop-color="#FFCD5E"/>
<stop offset="0.488943" stop-color="#FFB264"/>
</linearGradient>
</defs>
</svg>
