<svg width="50" height="55" viewBox="0 0 50 55" fill="none" xmlns="http://www.w3.org/2000/svg">
<path d="M25.1377 24.1742C19.6186 17.4555 11.7437 3.10545 24.1493 0.000312868C30.1833 -0.0450839 38.779 4.83518 25.1377 24.1742Z" fill="#FB9F52"/>
<path d="M27.1304 25.9518C30.1016 17.5007 38.2033 3.30486 46.2874 14.1313C49.0317 20.0545 48.9316 30.7111 27.1304 25.9518Z" fill="#FB9F52"/>
<path d="M22.2544 28.0677C20.2899 36.8687 13.9048 52.0914 4.62893 42.4956C1.21886 37.0088 0.0795554 26.4258 22.2544 28.0677Z" fill="#FB9F52"/>
<path d="M26.8567 28.964C34.9239 27.2079 50.1396 27.1547 46.168 40.4755C43.0968 46.2004 34.8756 51.81 26.8567 28.964Z" fill="#FB9F52"/>
<path d="M23.1123 25.784C15.0948 27.798 -0.11309 28.3391 3.50523 14.8966C6.42396 9.07564 14.4936 3.20477 23.1123 25.784Z" fill="#FB9F52"/>
<path d="M24.7222 30.7485C30.2027 37.5055 37.9952 51.9101 25.572 54.9288C19.5379 54.9322 10.9704 49.9922 24.7222 30.7485Z" fill="#FB9F52"/>
<path fill-rule="evenodd" clip-rule="evenodd" d="M25.1179 10.4709C25.1179 10.1948 24.8941 9.97095 24.6179 9.97095C24.3418 9.97095 24.1179 10.1948 24.1179 10.4709V25.7044L10.241 16.6134C10.01 16.4621 9.70796 16.5316 9.56636 16.7687C9.42476 17.0058 9.49722 17.3206 9.72821 17.4719L23.6728 26.6073L8.25821 36.457C8.02551 36.6057 7.94957 36.9196 8.08857 37.1582C8.22758 37.3968 8.5289 37.4697 8.7616 37.321L24.1179 27.5085V45.6464C24.1179 45.9225 24.3418 46.1464 24.6179 46.1464C24.8941 46.1464 25.1179 45.9225 25.1179 45.6464V27.554L39.1369 36.738C39.3679 36.8894 39.67 36.8198 39.8116 36.5828C39.9532 36.3457 39.8807 36.0308 39.6497 35.8795L25.5121 26.6177L38.3735 18.3994C38.6062 18.2507 38.6822 17.9368 38.5432 17.6982C38.4042 17.4596 38.1029 17.3867 37.8702 17.5354L25.1179 25.6838V10.4709Z" fill="white"/>
<path d="M33.6032 27.4423C33.6032 32.8166 29.661 37.0885 24.8978 37.0885C20.1346 37.0885 16.1924 32.8166 16.1924 27.4423C16.1924 22.068 20.1346 17.7961 24.8978 17.7961C29.661 17.7961 33.6032 22.068 33.6032 27.4423Z" fill="#FB9F52" stroke="white"/>
<ellipse cx="25" cy="27.555" rx="7" ry="7.71539" fill="white"/>
</svg>
