<svg width="50" height="51" viewBox="0 0 50 51" fill="none" xmlns="http://www.w3.org/2000/svg">
<g filter="url(#filter0_i_6278_762)">
<path d="M22.2758 6.54955C23.3481 4.22494 26.6519 4.22494 27.7242 6.54955L31.3501 14.4105C31.7871 15.3579 32.6849 16.0102 33.721 16.1331L42.3177 17.1523C44.8598 17.4538 45.8808 20.5959 44.0013 22.334L37.6456 28.2116C36.8796 28.92 36.5366 29.9755 36.7399 30.9988L38.4271 39.4897C38.926 42.0006 36.2531 43.9426 34.0193 42.6922L26.4653 38.4638C25.5549 37.9542 24.4451 37.9542 23.5347 38.4638L15.9807 42.6922C13.7469 43.9426 11.074 42.0006 11.5729 39.4897L13.2601 30.9988C13.4634 29.9755 13.1204 28.92 12.3544 28.2116L5.99871 22.334C4.11921 20.5959 5.14016 17.4538 7.68234 17.1523L16.279 16.1331C17.3151 16.0102 18.2129 15.3579 18.6499 14.4105L22.2758 6.54955Z" fill="url(#paint0_linear_6278_762)"/>
</g>
<g filter="url(#filter1_i_6278_762)">
<path d="M23.2436 16.1285C23.9585 14.5787 26.161 14.5787 26.8759 16.1285L28.4031 19.4394C28.6944 20.071 29.293 20.5059 29.9837 20.5878L33.6045 21.0171C35.2993 21.2181 35.9799 23.3128 34.7269 24.4716L32.05 26.9472C31.5393 27.4194 31.3107 28.1231 31.4462 28.8053L32.1568 32.3816C32.4894 34.0555 30.7075 35.3501 29.2183 34.5165L26.0366 32.7356C25.4297 32.3959 24.6898 32.3959 24.0829 32.7356L20.9012 34.5165C19.412 35.3501 17.6301 34.0555 17.9627 32.3816L18.6733 28.8053C18.8089 28.1231 18.5802 27.4194 18.0695 26.9472L15.3926 24.4716C14.1396 23.3128 14.8202 21.2181 16.515 21.0171L20.1358 20.5878C20.8265 20.5059 21.4251 20.071 21.7165 19.4394L23.2436 16.1285Z" fill="#094BAC"/>
</g>
<defs>
<filter id="filter0_i_6278_762" x="1.03174" y="0.806152" width="43.9365" height="42.2759" filterUnits="userSpaceOnUse" color-interpolation-filters="sRGB">
<feFlood flood-opacity="0" result="BackgroundImageFix"/>
<feBlend mode="normal" in="SourceGraphic" in2="BackgroundImageFix" result="shape"/>
<feColorMatrix in="SourceAlpha" type="matrix" values="0 0 0 0 0 0 0 0 0 0 0 0 0 0 0 0 0 0 127 0" result="hardAlpha"/>
<feOffset dx="-15" dy="-15"/>
<feGaussianBlur stdDeviation="2"/>
<feComposite in2="hardAlpha" operator="arithmetic" k2="-1" k3="1"/>
<feColorMatrix type="matrix" values="0 0 0 0 0.207843 0 0 0 0 0.521569 0 0 0 0 0.992157 0 0 0 1 0"/>
<feBlend mode="normal" in2="shape" result="effect1_innerShadow_6278_762"/>
</filter>
<filter id="filter1_i_6278_762" x="12.2814" y="12.4994" width="23.0902" height="22.277" filterUnits="userSpaceOnUse" color-interpolation-filters="sRGB">
<feFlood flood-opacity="0" result="BackgroundImageFix"/>
<feBlend mode="normal" in="SourceGraphic" in2="BackgroundImageFix" result="shape"/>
<feColorMatrix in="SourceAlpha" type="matrix" values="0 0 0 0 0 0 0 0 0 0 0 0 0 0 0 0 0 0 127 0" result="hardAlpha"/>
<feOffset dx="-15" dy="-15"/>
<feGaussianBlur stdDeviation="1.23333"/>
<feComposite in2="hardAlpha" operator="arithmetic" k2="-1" k3="1"/>
<feColorMatrix type="matrix" values="0 0 0 0 0.027451 0 0 0 0 0.219608 0 0 0 0 0.505882 0 0 0 1 0"/>
<feBlend mode="normal" in2="shape" result="effect1_innerShadow_6278_762"/>
</filter>
<linearGradient id="paint0_linear_6278_762" x1="17.1429" y1="21.9531" x2="29.6429" y2="29.4531" gradientUnits="userSpaceOnUse">
<stop offset="0.479676" stop-color="#599CFD"/>
<stop offset="1" stop-color="#428AF9"/>
</linearGradient>
</defs>
</svg>
