<svg width="51" height="46" viewBox="0 0 51 46" fill="none" xmlns="http://www.w3.org/2000/svg">
<path d="M27.6001 3.37385L12.1293 24.4226C11.6439 25.083 12.1154 26.0149 12.935 26.0149H22.9041C23.5288 26.0149 24.0006 26.5812 23.8877 27.1956L21.2133 41.7499C21.0271 42.7635 22.3102 43.3621 22.9673 42.5682L39.3475 22.7746C39.887 22.1227 39.4233 21.1371 38.5771 21.1371H27.7414C27.1235 21.1371 26.6535 20.5824 26.755 19.9729L29.3923 4.1303C29.5652 3.09219 28.2234 2.52587 27.6001 3.37385Z" fill="#2C4EA5"/>
<path d="M4.45312 13.6851L8.30387 17.6144" stroke="#E83E01" stroke-linecap="round"/>
<path d="M46.5469 10.5684L42.6961 14.4977" stroke="#E83E01" stroke-linecap="round"/>
<path d="M1 27.8521L6.44183 27.6407" stroke="#E83E01" stroke-linecap="round"/>
<path d="M50 24.7358L44.5582 24.5244" stroke="#E83E01" stroke-linecap="round"/>
<path d="M4.45312 41.042L8.97042 37.9385" stroke="#E83E01" stroke-linecap="round"/>
<path d="M46.5469 37.9258L42.0296 34.8222" stroke="#E83E01" stroke-linecap="round"/>
</svg>
