  <svg
    width="50"
    height="51"
    viewBox="0 0 50 51"
    fill="none"
    xmlns="http://www.w3.org/2000/svg"
  >
    <rect y="0.5" width="50" height="50" rx="25" fill="#2C4EA5" />
    <path
      d="M25.0016 25.4996C26.3011 25.4996 27.5475 24.9781 28.4664 24.0498C29.3853 23.1215 29.9016 21.8624 29.9016 20.5496C29.9016 19.2368 29.3853 17.9777 28.4664 17.0494C27.5475 16.1211 26.3011 15.5996 25.0016 15.5996C23.702 15.5996 22.4557 16.1211 21.5367 17.0494C20.6178 17.9777 20.1016 19.2368 20.1016 20.5496C20.1016 21.8624 20.6178 23.1215 21.5367 24.0498C22.4557 24.9781 23.702 25.4996 25.0016 25.4996ZM19.0516 26.9139C18.4018 26.9139 17.7786 27.1747 17.3192 27.6388C16.8597 28.103 16.6016 28.7325 16.6016 29.3889V29.7425C16.6016 31.4347 17.6677 32.8659 19.1811 33.8389C20.7029 34.8176 22.763 35.3996 25.0016 35.3996C27.2402 35.3996 29.2996 34.8176 30.8221 33.8389C32.3355 32.8659 33.4016 31.4347 33.4016 29.7425V29.3889C33.4016 28.7325 33.1434 28.103 32.684 27.6388C32.2245 27.1747 31.6013 26.9139 30.9516 26.9139H19.0516Z"
      fill="white"
    />
  </svg>
