<svg width="17" height="20" viewBox="0 0 17 20" fill="none" xmlns="http://www.w3.org/2000/svg">
<path d="M8.5001 9.99998C9.79966 9.99998 11.046 9.47846 11.9649 8.55015C12.8839 7.62185 13.4001 6.3628 13.4001 5.04998C13.4001 3.73715 12.8839 2.4781 11.9649 1.5498C11.046 0.621492 9.79966 0.0999756 8.5001 0.0999756C7.20054 0.0999756 5.9542 0.621492 5.03527 1.5498C4.11635 2.4781 3.6001 3.73715 3.6001 5.04998C3.6001 6.3628 4.11635 7.62185 5.03527 8.55015C5.9542 9.47846 7.20054 9.99998 8.5001 9.99998ZM2.5501 11.4143C1.90032 11.4143 1.27715 11.675 0.817686 12.1392C0.358222 12.6033 0.100098 13.2329 0.100098 13.8893V14.2428C0.100098 15.935 1.1662 17.3663 2.6796 18.3393C4.2014 19.318 6.2615 19.9 8.5001 19.9C10.7387 19.9 12.7981 19.318 14.3206 18.3393C15.834 17.3663 16.9001 15.935 16.9001 14.2428V13.8893C16.9001 13.2329 16.642 12.6033 16.1825 12.1392C15.723 11.675 15.0999 11.4143 14.4501 11.4143H2.5501Z" fill="#2C4EA5"/>
</svg>
