  <svg
    width="30"
    height="26"
    viewBox="0 0 30 26"
    fill="none"
    xmlns="http://www.w3.org/2000/svg"
  >
    <path
      d="M21.3542 0.911133C20.1028 0.910962 18.8699 1.19343 17.76 1.73456C16.6502 2.27568 15.6963 3.05949 14.9792 4.01943C14.2621 3.05949 13.3081 2.27568 12.1983 1.73456C11.0885 1.19343 9.85553 0.910962 8.60417 0.911133C6.53769 0.911133 4.55585 1.67954 3.09463 3.04731C1.63341 4.41508 0.8125 6.27018 0.8125 8.2045C0.8125 15.7883 10.0208 22.046 14.9792 25.2445C19.9375 22.046 29.1458 15.7883 29.1458 8.2045C29.1458 7.24672 28.9443 6.29832 28.5527 5.41345C28.1612 4.52858 27.5872 3.72456 26.8637 3.04731C26.1402 2.37006 25.2812 1.83283 24.3359 1.46631C23.3906 1.09978 22.3774 0.911133 21.3542 0.911133Z"
      fill="#CF0505"
    />
  </svg>
