  <svg
    width="137"
    height="136"
    viewBox="0 0 137 136"
    fill="none"
    xmlns="http://www.w3.org/2000/svg"
  >
    <path
      d="M68.5 8.45215C45.0666 8.45215 26 26.5532 26 48.7939C26 59.3857 30.8636 73.471 40.4553 90.6598C48.1584 104.46 57.0702 116.94 61.7053 123.149C62.4885 124.21 63.5126 125.073 64.6945 125.668C65.8764 126.263 67.1829 126.573 68.508 126.573C69.8331 126.573 71.1395 126.263 72.3214 125.668C73.5033 125.073 74.5274 124.21 75.3106 123.149C79.9378 116.94 88.8575 104.46 96.5606 90.6598C106.136 73.4763 111 59.3909 111 48.7939C111 26.5532 91.9334 8.45215 68.5 8.45215ZM68.5 67.5147C65.1377 67.5147 61.8509 66.525 59.0553 64.6707C56.2597 62.8165 54.0807 60.1809 52.794 57.0974C51.5074 54.0139 51.1707 50.6209 51.8266 47.3475C52.4826 44.0741 54.1017 41.0672 56.4792 38.7072C58.8567 36.3472 61.8858 34.74 65.1835 34.0889C68.4811 33.4378 71.8993 33.772 75.0056 35.0492C78.112 36.3264 80.767 38.4893 82.635 41.2644C84.503 44.0395 85.5 47.3021 85.5 50.6397C85.4951 55.1137 83.7024 59.4031 80.5154 62.5667C77.3283 65.7303 73.0072 67.5098 68.5 67.5147Z"
      fill="#2C4EA5"
    />
    <path
      d="M68.5 59.1758C73.1944 59.1758 77 55.3982 77 50.7383C77 46.0784 73.1944 42.3008 68.5 42.3008C63.8056 42.3008 60 46.0784 60 50.7383C60 55.3982 63.8056 59.1758 68.5 59.1758Z"
      fill="#2C4EA5"
    />
  </svg>
