<svg
	width="30"
	height="27"
	viewBox="0 0 30 27"
	fill="none"
	xmlns="http://www.w3.org/2000/svg"
>
    <path
      d="M29.5 13.5C29.5 20.6315 23.059 26.5 15 26.5C6.94102 26.5 0.5 20.6315 0.5 13.5C0.5 6.36855 6.94102 0.5 15 0.5C23.059 0.5 29.5 6.36855 29.5 13.5Z"
      fill="#F48218"
      stroke="black"
    />
    <path
      d="M8.89748 17.2125C8.25398 14.3525 7.93223 12.9233 8.60798 11.9617C9.28373 11 10.6105 11 13.2632 11H16.7357C19.3892 11 20.7152 11 21.391 11.9617C22.0667 12.9233 21.745 14.3533 21.1015 17.2125C20.692 19.0317 20.488 19.9408 19.8775 20.4708C19.267 21 18.4232 21 16.7357 21H13.2632C11.5757 21 10.732 21 10.1215 20.4708C9.51098 19.9408 9.30623 19.0317 8.89748 17.2125Z"
      stroke="white"
    />
    <path
      d="M20.625 11.4163L20.0925 9.24551C19.887 8.40801 19.7842 7.98967 19.5735 7.67384C19.3634 7.36006 19.078 7.11834 18.75 6.97634C18.42 6.83301 18.03 6.83301 17.25 6.83301M9.375 11.4163L9.9075 9.24551C10.113 8.40801 10.2157 7.98967 10.4265 7.67384C10.6366 7.36006 10.922 7.11834 11.25 6.97634C11.58 6.83301 11.97 6.83301 12.75 6.83301"
      stroke="white"
    />
    <path
      d="M12.75 6.83333C12.75 6.61232 12.829 6.40036 12.9697 6.24408C13.1103 6.0878 13.3011 6 13.5 6H16.5C16.6989 6 16.8897 6.0878 17.0303 6.24408C17.171 6.40036 17.25 6.61232 17.25 6.83333C17.25 7.05435 17.171 7.26631 17.0303 7.42259C16.8897 7.57887 16.6989 7.66667 16.5 7.66667H13.5C13.3011 7.66667 13.1103 7.57887 12.9697 7.42259C12.829 7.26631 12.75 7.05435 12.75 6.83333Z"
      stroke="white"
    />
  </svg>
