<svg width="35" height="34" viewBox="0 0 35 34" fill="none" xmlns="http://www.w3.org/2000/svg">
<path d="M34.5 17C34.5 26.0991 26.9026 33.5 17.5 33.5C8.0974 33.5 0.5 26.0991 0.5 17C0.5 7.90087 8.0974 0.5 17.5 0.5C26.9026 0.5 34.5 7.90087 34.5 17Z" fill="white" stroke="black"/>
<path d="M10.3809 21.8263C9.63013 18.1083 9.25475 16.2503 10.0431 15.0002C10.8315 13.75 12.3794 13.75 15.4743 13.75H19.5255C22.6213 13.75 24.1683 13.75 24.9566 15.0002C25.745 16.2503 25.3696 18.1093 24.6189 21.8263C24.1411 24.1912 23.9031 25.3731 23.1909 26.0621C22.4786 26.75 21.4943 26.75 19.5255 26.75H15.4743C13.5055 26.75 12.5211 26.75 11.8089 26.0621C11.0966 25.3731 10.8578 24.1912 10.3809 21.8263Z" stroke="black"/>
<path d="M24.0625 14.2916L23.4413 11.4695C23.2015 10.3808 23.0816 9.83692 22.8357 9.42634C22.5906 9.01842 22.2576 8.70419 21.875 8.51959C21.49 8.33325 21.035 8.33325 20.125 8.33325M10.9375 14.2916L11.5588 11.4695C11.7985 10.3808 11.9184 9.83692 12.1642 9.42634C12.4094 9.01842 12.7424 8.70419 13.125 8.51959C13.51 8.33325 13.965 8.33325 14.875 8.33325" stroke="black"/>
<path d="M14.875 8.33333C14.875 8.04602 14.9672 7.77047 15.1313 7.5673C15.2954 7.36414 15.5179 7.25 15.75 7.25H19.25C19.4821 7.25 19.7046 7.36414 19.8687 7.5673C20.0328 7.77047 20.125 8.04602 20.125 8.33333C20.125 8.62065 20.0328 8.8962 19.8687 9.09937C19.7046 9.30253 19.4821 9.41667 19.25 9.41667H15.75C15.5179 9.41667 15.2954 9.30253 15.1313 9.09937C14.9672 8.8962 14.875 8.62065 14.875 8.33333Z" stroke="black"/>
</svg>
