  <svg
    width="166"
    height="131"
    viewBox="0 0 166 131"
    fill="none"
    xmlns="http://www.w3.org/2000/svg"
  >
    <path
      d="M110.415 65.3643C106.032 65.3643 101.908 62.7451 99.6771 58.5545L82.9993 27.5322L66.3474 58.5545C64.0908 62.7742 59.9668 65.3934 55.5833 65.3934C54.4161 65.3934 53.2489 65.2188 52.1336 64.8404L16.5993 53.4326V105.233C16.5993 109.511 19.193 113.236 22.8761 114.255L78.953 129.999C81.5986 130.726 84.3739 130.726 86.9936 129.999L143.122 114.255C146.805 113.207 149.399 109.482 149.399 105.233V53.4326L113.865 64.8113C112.75 65.1897 111.582 65.3643 110.415 65.3643ZM165.558 32.7123L152.2 2.79591C151.396 0.991617 149.659 -0.0560401 147.869 0.205874L82.9993 9.48927L106.784 53.7528C107.77 55.5862 109.741 56.4592 111.582 55.8772L162.913 39.4348C165.48 38.5908 166.725 35.3897 165.558 32.7123ZM13.798 2.79591L0.440197 32.7123C-0.752928 35.3897 0.518009 38.5908 3.05988 39.4057L54.3902 55.8481C56.2318 56.4301 58.203 55.557 59.1886 53.7237L82.9993 9.48927L18.1036 0.205874C16.3139 -0.0269386 14.6021 0.991617 13.798 2.79591Z"
      fill="#2C4EA5"
    />
  </svg>
