  <svg
    width="20"
    height="18"
    viewBox="0 0 20 18"
    fill="none"
    xmlns="http://www.w3.org/2000/svg"
  >
    <path
      d="M13.9577 13.5C14.3776 13.5 14.7803 13.658 15.0773 13.9393C15.3742 14.2206 15.541 14.6022 15.541 15C15.541 15.3978 15.3742 15.7794 15.0773 16.0607C14.7803 16.342 14.3776 16.5 13.9577 16.5C13.5378 16.5 13.135 16.342 12.8381 16.0607C12.5412 15.7794 12.3743 15.3978 12.3743 15C12.3743 14.1675 13.0789 13.5 13.9577 13.5ZM1.29102 1.5H3.87977L4.62393 3H16.3327C16.5426 3 16.744 3.07902 16.8925 3.21967C17.0409 3.36032 17.1243 3.55109 17.1243 3.75C17.1243 3.8775 17.0848 4.005 17.0293 4.125L14.1952 8.9775C13.926 9.435 13.4035 9.75 12.8098 9.75H6.91185L6.19935 10.9725L6.1756 11.0625C6.1756 11.1122 6.19645 11.1599 6.23357 11.1951C6.27068 11.2302 6.32102 11.25 6.37352 11.25H15.541V12.75H6.04102C5.62109 12.75 5.21836 12.592 4.92143 12.3107C4.6245 12.0294 4.45768 11.6478 4.45768 11.25C4.45768 10.9875 4.52893 10.74 4.64768 10.53L5.72435 8.6925L2.87435 3H1.29102V1.5ZM6.04102 13.5C6.46094 13.5 6.86367 13.658 7.1606 13.9393C7.45753 14.2206 7.62435 14.6022 7.62435 15C7.62435 15.3978 7.45753 15.7794 7.1606 16.0607C6.86367 16.342 6.46094 16.5 6.04102 16.5C5.62109 16.5 5.21836 16.342 4.92143 16.0607C4.6245 15.7794 4.45768 15.3978 4.45768 15C4.45768 14.1675 5.16227 13.5 6.04102 13.5ZM13.166 8.25L15.3668 4.5H5.36018L7.22852 8.25H13.166Z"
      fill="white"
    />
  </svg>
