  <svg
    width="136"
    height="135"
    viewBox="0 0 136 135"
    fill="none"
    xmlns="http://www.w3.org/2000/svg"
  >
    <path
      d="M39.666 58.7803H50.9993V69.9469H39.666V58.7803ZM39.666 81.1136H50.9993V92.2803H39.666V81.1136ZM62.3327 58.7803H73.666V69.9469H62.3327V58.7803ZM62.3327 81.1136H73.666V92.2803H62.3327V81.1136ZM84.9993 58.7803H96.3327V69.9469H84.9993V58.7803ZM84.9993 81.1136H96.3327V92.2803H84.9993V81.1136Z"
      fill="#2C4EA5"
    />
    <path
      d="M28.3333 122.846H107.667C113.917 122.846 119 117.838 119 111.68V33.513C119 27.3546 113.917 22.3464 107.667 22.3464H96.3333V11.1797H85V22.3464H51V11.1797H39.6667V22.3464H28.3333C22.083 22.3464 17 27.3546 17 33.513V111.68C17 117.838 22.083 122.846 28.3333 122.846ZM107.667 44.6797L107.672 111.68H28.3333V44.6797H107.667Z"
      fill="#2C4EA5"
    />
  </svg>
