  <svg
    width="80"
    height="80"
    viewBox="0 0 80 80"
    fill="none"
    xmlns="http://www.w3.org/2000/svg"
  >
    <rect
      x="1"
      y="1"
      width="78"
      height="78"
      rx="39"
      stroke="black"
      stroke-width="2"
    />
    <g clip-path="url(#clip0_1324_2886)">
      <path
        d="M45.8833 17.5C45.5372 17.5138 45.2031 17.5761 44.8552 17.6626L21.3272 23.395C18.5441 24.0769 16.8029 26.8842 17.4866 29.669L20.7854 43.1378C20.9853 43.9401 21.3746 44.6828 21.9205 45.3037C22.4664 45.9247 23.1532 46.4057 23.9233 46.7067V43.4615C23.9233 38.6898 27.8054 34.8076 32.5772 34.8076H54.3745L51.1293 21.4478C50.8423 20.2865 50.1635 19.2597 49.2076 18.5406C48.2516 17.8214 47.0787 17.4539 45.8833 17.5ZM47.9914 24.9648L49.3985 30.8598L43.5572 32.2652L42.0964 26.4238L47.9914 24.9648ZM32.5772 38.2692C29.711 38.2692 27.3849 40.5953 27.3849 43.4615V57.3076C27.3849 60.1738 29.711 62.5 32.5772 62.5H56.8079C59.6741 62.5 62.0002 60.1738 62.0002 57.3076V43.4615C62.0002 40.5953 59.6741 38.2692 56.8079 38.2692H32.5772ZM32.5772 41.028H56.8079C58.1424 41.028 59.2414 42.1271 59.2414 43.4615V45.1923H30.1437V43.4615C30.1437 42.1271 31.2427 41.028 32.5772 41.028ZM30.1437 50.3846H59.2414V57.3076C59.2414 58.6421 58.1424 59.7411 56.8079 59.7411H32.5772C31.9329 59.7375 31.316 59.4799 30.8605 59.0243C30.4049 58.5688 30.1473 57.9519 30.1437 57.3076V50.3846Z"
        fill="black"
      />
    </g>
    <defs>
      <clipPath id="clip0_1324_2886">
        <rect
          width="45"
          height="45"
          fill="white"
          transform="translate(17 17.5)"
        />
      </clipPath>
    </defs>
  </svg>
