  <svg
    width="21"
    height="21"
    viewBox="0 0 21 21"
    fill="none"
    xmlns="http://www.w3.org/2000/svg"
  >
    <path
      d="M14.6666 6.33333L16.75 4.25M16.75 4.25L18.8333 2.16667M16.75 4.25L14.6666 2.16667M16.75 4.25L18.8333 6.33333M3.20833 1.125C2.05774 1.125 1.125 2.05774 1.125 3.20833V4.25C1.125 12.8794 8.12055 19.875 16.75 19.875H17.7917C18.9423 19.875 19.875 18.9423 19.875 17.7917V14.3758C19.875 13.9274 19.5881 13.5294 19.1627 13.3876L14.4821 11.8274C13.9903 11.6634 13.4528 11.8861 13.221 12.3497L12.0453 14.701C9.49873 13.5529 7.44713 11.5013 6.29896 8.95468L8.65028 7.77903C9.11394 7.5472 9.33657 7.00971 9.17264 6.51793L7.61242 1.83726C7.47063 1.41191 7.07257 1.125 6.62421 1.125H3.20833Z"
      stroke="#FEFAF2"
      stroke-width="2"
      stroke-linecap="round"
      stroke-linejoin="round"
    />
  </svg>
