  <svg
    width="137"
    height="119"
    viewBox="0 0 137 119"
    fill="none"
    xmlns="http://www.w3.org/2000/svg"
  >
    <path
      d="M21.5 0.489258C18.0417 0.489258 15.275 1.73092 13.2 4.21426L4.20833 14.1476C2.13333 16.6309 0.75 19.1143 0.75 22.2184V99.8226C0.75 106.652 6.975 112.239 14.5833 112.239H71.9917C70.6083 108.514 69.9167 104.168 69.9167 99.8226C69.9167 79.3351 88.5917 62.5726 111.417 62.5726C116.258 62.5726 121.1 63.1934 125.25 64.4351V22.2184C125.25 19.1143 123.867 16.6309 121.792 14.1476L112.108 3.59342C110.725 1.73092 107.958 0.489258 104.5 0.489258H21.5ZM20.8083 6.69759H103.808L110.033 12.9059H15.275L20.8083 6.69759ZM21.5 74.9893H63V93.6143H21.5V74.9893ZM127.325 79.9559L102.425 102.306L91.3583 92.3726L83.75 99.8226L103.117 118.448L136.317 88.6476L127.325 79.9559Z"
      fill="#2C4EA5"
    />
  </svg>
