  <svg
    width="140"
    height="113"
    viewBox="0 0 140 113"
    fill="none"
    xmlns="http://www.w3.org/2000/svg"
  >
    <path
      d="M136.399 51.5218L104.582 28.5509V12.9059C104.752 9.77035 103.529 6.70244 101.182 4.37485C98.8353 2.04725 95.556 0.649933 92.0631 0.489258H13.2131C9.74489 0.681465 6.50067 2.09245 4.18328 4.41655C1.8659 6.74064 0.661964 9.79069 0.832304 12.9059V74.9893C0.768109 77.4546 1.52324 79.8813 3.00144 81.96C4.47963 84.0387 6.61394 85.6752 9.1323 86.6609C7.85849 89.4581 7.36204 92.4914 7.68579 95.4992C8.00955 98.507 9.14378 101.399 10.9906 103.925C12.8375 106.452 15.3414 108.537 18.2865 110.001C21.2316 111.465 24.5293 112.264 27.8951 112.329C31.2609 112.394 34.5937 111.722 37.6059 110.373C40.6181 109.023 43.2194 107.036 45.1851 104.583C47.1508 102.13 48.422 99.2843 48.889 96.2917C49.356 93.2991 49.0048 90.2495 47.8656 87.4059H91.8556C90.7181 90.2191 90.3525 93.2369 90.79 96.2038C91.2274 99.1707 92.4549 101.999 94.3686 104.45C96.2822 106.901 98.8256 108.902 101.783 110.283C104.741 111.664 108.026 112.385 111.361 112.385C114.695 112.385 117.98 111.664 120.938 110.283C123.896 108.902 126.439 106.901 128.353 104.45C130.266 101.999 131.494 99.1707 131.931 96.2038C132.369 93.2369 132.003 90.2191 130.866 87.4059H132.249C134.083 87.4059 135.843 86.7518 137.14 85.5875C138.437 84.4233 139.166 82.8441 139.166 81.1976V56.3643C139.144 55.4215 138.884 54.4955 138.405 53.6564C137.926 52.8173 137.24 52.0873 136.399 51.5218ZM125.332 59.3443V74.9893H104.582V44.4443L125.332 59.3443ZM35.4156 93.6143C35.4156 94.8421 35.01 96.0425 34.25 97.0634C33.4899 98.0844 32.4097 98.8801 31.1459 99.35C29.882 99.8199 28.4913 99.9428 27.1496 99.7033C25.8079 99.4637 24.5755 98.8725 23.6081 98.0042C22.6408 97.136 21.9821 96.0297 21.7152 94.8254C21.4483 93.6211 21.5853 92.3729 22.1088 91.2384C22.6323 90.104 23.5188 89.1344 24.6563 88.4522C25.7937 87.77 27.131 87.4059 28.499 87.4059C30.3334 87.4059 32.0927 88.06 33.3898 89.2243C34.6869 90.3886 35.4156 91.9677 35.4156 93.6143ZM118.416 93.6143C118.416 94.8421 118.01 96.0425 117.25 97.0634C116.49 98.0844 115.41 98.8801 114.146 99.35C112.882 99.8199 111.491 99.9428 110.15 99.7033C108.808 99.4637 107.575 98.8725 106.608 98.0042C105.641 97.136 104.982 96.0297 104.715 94.8254C104.448 93.6211 104.585 92.3729 105.109 91.2384C105.632 90.104 106.519 89.1344 107.656 88.4522C108.794 87.77 110.131 87.4059 111.499 87.4059C113.333 87.4059 115.093 88.06 116.39 89.2243C117.687 90.3886 118.416 91.9677 118.416 93.6143Z"
      fill="#2C4EA5"
    />
  </svg>
