  <svg
    width="90"
    height="90"
    viewBox="0 0 90 90"
    fill="none"
    xmlns="http://www.w3.org/2000/svg"
  >
    <circle cx="45" cy="45" r="45" fill="#E83E01" />
    <mask id="path-2-inside-1_1115_453" fill="white">
      <path
        fill-rule="evenodd"
        clip-rule="evenodd"
        d="M62.0652 27.0139C62.5827 27.0424 62.9927 27.4615 63.0098 27.9794L63.637 46.9809C63.6498 47.3679 63.4578 47.6758 63.1838 47.8521C63.0405 48.2376 62.8153 48.5996 62.5079 48.9114L37.865 73.9038C36.7017 75.0836 34.8023 75.097 33.6225 73.9337L15.894 56.4532C14.7142 55.2899 14.7008 53.3905 15.8641 52.2107L40.507 27.2182C40.9916 26.7267 41.6041 26.4376 42.2391 26.3518C42.4252 26.1106 42.7211 25.9505 43.0821 25.9704L62.0652 27.0139ZM51.1936 38.2875C51.9265 39.0057 53.1005 38.9962 53.8158 38.2662C54.5311 37.5363 54.5169 36.3623 53.784 35.6441C53.0511 34.926 51.8772 34.9355 51.1618 35.6654C50.4465 36.3954 50.4608 37.5693 51.1936 38.2875Z"
      />
    </mask>
    <path
      fill-rule="evenodd"
      clip-rule="evenodd"
      d="M62.0652 27.0139C62.5827 27.0424 62.9927 27.4615 63.0098 27.9794L63.637 46.9809C63.6498 47.3679 63.4578 47.6758 63.1838 47.8521C63.0405 48.2376 62.8153 48.5996 62.5079 48.9114L37.865 73.9038C36.7017 75.0836 34.8023 75.097 33.6225 73.9337L15.894 56.4532C14.7142 55.2899 14.7008 53.3905 15.8641 52.2107L40.507 27.2182C40.9916 26.7267 41.6041 26.4376 42.2391 26.3518C42.4252 26.1106 42.7211 25.9505 43.0821 25.9704L62.0652 27.0139ZM51.1936 38.2875C51.9265 39.0057 53.1005 38.9962 53.8158 38.2662C54.5311 37.5363 54.5169 36.3623 53.784 35.6441C53.0511 34.926 51.8772 34.9355 51.1618 35.6654C50.4465 36.3954 50.4608 37.5693 51.1936 38.2875Z"
      fill="#E83E01"
    />
    <path
      d="M63.0098 27.9794L60.0114 28.0784V28.0784L63.0098 27.9794ZM62.0652 27.0139L62.2299 24.0184L62.0652 27.0139ZM63.637 46.9809L60.6387 47.0798V47.0798L63.637 46.9809ZM63.1838 47.8521L61.5603 45.3294L60.7199 45.8702L60.3717 46.807L63.1838 47.8521ZM62.5079 48.9114L60.3716 46.805L60.3716 46.805L62.5079 48.9114ZM37.865 73.9038L40.0012 76.0101H40.0012L37.865 73.9038ZM33.6225 73.9337L31.5162 76.0699L33.6225 73.9337ZM15.894 56.4532L13.7877 58.5894L13.7877 58.5894L15.894 56.4532ZM15.8641 52.2107L13.7279 50.1044H13.7279L15.8641 52.2107ZM40.507 27.2182L38.3707 25.1119V25.1119L40.507 27.2182ZM42.2391 26.3518L42.641 29.3247L43.8618 29.1597L44.6143 28.1844L42.2391 26.3518ZM43.0821 25.9704L43.2468 22.9749L43.0821 25.9704ZM53.8158 38.2662L51.6731 36.1665L51.6731 36.1665L53.8158 38.2662ZM53.784 35.6441L55.8838 33.5014L55.8837 33.5014L53.784 35.6441ZM51.1618 35.6654L49.0191 33.5657L49.0191 33.5657L51.1618 35.6654ZM66.0082 27.8805C65.9398 25.8086 64.2998 24.1322 62.2299 24.0184L61.9006 30.0094C60.8656 29.9525 60.0456 29.1143 60.0114 28.0784L66.0082 27.8805ZM66.6354 46.8819L66.0082 27.8805L60.0114 28.0784L60.6387 47.0798L66.6354 46.8819ZM64.8072 50.3749C65.8993 49.6721 66.6856 48.404 66.6354 46.8819L60.6387 47.0798C60.614 46.3318 61.0163 45.6795 61.5603 45.3294L64.8072 50.3749ZM64.6441 51.0177C65.255 50.3981 65.7077 49.6725 65.9958 48.8973L60.3717 46.807C60.3722 46.8057 60.3729 46.8042 60.3737 46.8029C60.3747 46.8014 60.3745 46.8021 60.3716 46.805L64.6441 51.0177ZM40.0012 76.0101L64.6441 51.0177L60.3716 46.805L35.7288 71.7975L40.0012 76.0101ZM31.5162 76.0699C33.8758 78.3965 37.6747 78.3697 40.0012 76.0101L35.7288 71.7975H35.7288L31.5162 76.0699ZM13.7877 58.5894L31.5162 76.0699L35.7288 71.7975L18.0003 54.317L13.7877 58.5894ZM13.7279 50.1044C11.4013 52.464 11.4281 56.2629 13.7877 58.5894L18.0003 54.317L18.0003 54.317L13.7279 50.1044ZM38.3707 25.1119L13.7279 50.1044L18.0003 54.317L42.6432 29.3246L38.3707 25.1119ZM41.8372 23.3788C40.5674 23.5505 39.3379 24.1311 38.3707 25.1119L42.6432 29.3246C42.6456 29.3221 42.6464 29.3216 42.6458 29.3221C42.6452 29.3225 42.6442 29.3232 42.6429 29.3238C42.6404 29.325 42.6395 29.3249 42.641 29.3247L41.8372 23.3788ZM43.2468 22.9749C41.835 22.8973 40.6131 23.5483 39.864 24.5191L44.6143 28.1844C44.2373 28.6729 43.6073 29.0038 42.9174 28.9658L43.2468 22.9749ZM62.2299 24.0184L43.2468 22.9749L42.9174 28.9658L61.9006 30.0094L62.2299 24.0184ZM51.6731 36.1665C52.1254 35.705 52.8509 35.7113 53.2934 36.1448L49.0939 40.4302C51.0021 42.3001 54.0756 42.2873 55.9585 40.3659L51.6731 36.1665ZM51.6843 37.7868C51.2419 37.3533 51.2209 36.628 51.6731 36.1665L55.9585 40.3659C57.8414 38.4445 57.7919 35.3713 55.8838 33.5014L51.6843 37.7868ZM53.3045 37.7652C52.8523 38.2267 52.1267 38.2204 51.6843 37.7868L55.8837 33.5014C53.9756 31.6315 50.902 31.6443 49.0191 33.5657L53.3045 37.7652ZM53.2934 36.1448C53.7358 36.5784 53.7568 37.3037 53.3045 37.7652L49.0191 33.5657C47.1363 35.4871 47.1857 38.5603 49.0939 40.4302L53.2934 36.1448Z"
      fill="white"
      mask="url(#path-2-inside-1_1115_453)"
    />
    <path
      d="M40.2195 59.2649C38.7912 60.7225 36.9764 60.6401 36.1428 59.8232C35.3091 59.0063 35.19 57.1935 36.6183 55.736C38.0467 54.2784 39.8615 54.3608 40.6951 55.1777C41.5288 55.9946 41.6479 57.8074 40.2195 59.2649Z"
      stroke="white"
      stroke-width="3"
    />
    <path
      d="M30.7578 53.4854L47.573 47.6366"
      stroke="white"
      stroke-width="3"
      stroke-linecap="round"
    />
    <path
      d="M52.9238 33.9967V22.914C53.1786 20.4936 54.9875 15.7293 60.1849 16.0351C62.6053 15.7803 67.7517 16.7993 68.9747 22.914V33.9967C68.9747 35.5254 70.1212 38.6591 74.7071 38.9649"
      stroke="white"
      stroke-width="3"
      stroke-linecap="round"
    />
    <path
      d="M41.6805 45.3743C40.2521 46.8319 38.4373 46.7495 37.6037 45.9326C36.77 45.1157 36.6509 43.3029 38.0793 41.8453C39.5076 40.3878 41.3224 40.4701 42.1561 41.2871C42.9897 42.104 43.1088 43.9167 41.6805 45.3743Z"
      stroke="white"
      stroke-width="3"
    />
  </svg>
