  <svg
    width="35"
    height="36"
    viewBox="0 0 35 36"
    fill="none"
    xmlns="http://www.w3.org/2000/svg"
  >
    <path
      d="M0 5.5C0 2.73858 2.23858 0.5 5 0.5H35V35.5H0V5.5Z"
      fill="#F48218"
    />
    <g clip-path="url(#clip0_1115_396)">
      <path
        d="M16.1104 29.574C15.85 29.2823 15.5542 28.951 15.3292 28.9073C14.9656 28.9227 14.6129 29.0361 14.3083 29.2354L14.3156 29.2302C13.9479 29.4464 13.5379 29.5807 13.1135 29.624L13.101 29.625H13.0906C12.9594 29.6251 12.8295 29.5993 12.7083 29.549L12.7146 29.551C12.2031 29.3385 11.9958 28.7469 11.7979 28.174C11.7186 27.829 11.555 27.5091 11.3219 27.2427L11.324 27.2448C11.1438 27.1573 10.9431 27.1209 10.7437 27.1396H10.7479C10.5958 27.1396 10.4354 27.149 10.275 27.1583C10.1021 27.1687 9.92917 27.1771 9.76458 27.1771C9.56694 27.1957 9.36756 27.1751 9.1779 27.1165C8.98823 27.0579 8.81202 26.9623 8.65937 26.8354L8.66146 26.8375C8.49757 26.6038 8.3846 26.3383 8.32987 26.0582C8.27514 25.7781 8.27987 25.4896 8.34375 25.2115L8.34167 25.225C8.4027 24.8688 8.3726 24.5029 8.25417 24.1615L8.25833 24.1771C7.99679 23.9472 7.6827 23.7851 7.34375 23.7052L7.32917 23.7021C6.75625 23.5031 6.1625 23.2969 5.95208 22.7854C5.89172 22.5096 5.88954 22.2241 5.94568 21.9474C6.00182 21.6707 6.11504 21.4087 6.27812 21.1781L6.27396 21.1844C6.46427 20.8789 6.57427 20.5302 6.59375 20.1708V20.1656C6.55 19.9396 6.21875 19.6448 5.92708 19.3844C5.47083 18.9802 5 18.5604 5 17.999C5 17.4375 5.47083 17.0177 5.92604 16.6104C6.21771 16.35 6.54896 16.0542 6.59271 15.8292C6.57157 15.4663 6.45867 15.1147 6.26458 14.8073L6.26979 14.8156C6.10716 14.5833 5.99489 14.3196 5.94018 14.0414C5.88547 13.7632 5.88952 13.4766 5.95208 13.2L5.95 13.2135C6.1625 12.7021 6.75417 12.4948 7.32708 12.2969C7.6875 12.2125 8.00104 12.0469 8.25833 11.8198L8.25625 11.8219C8.37369 11.4808 8.40166 11.1154 8.3375 10.7604L8.33958 10.7729C8.27819 10.4953 8.2752 10.2079 8.33079 9.92908C8.38638 9.65023 8.49934 9.38599 8.6625 9.15312L8.65833 9.15937C8.81177 9.03294 8.98866 8.93805 9.17885 8.88013C9.36905 8.82221 9.5688 8.80242 9.76667 8.82187H9.76042C9.92708 8.82187 10.099 8.83125 10.2708 8.84062C10.4312 8.85 10.5917 8.85937 10.7437 8.85937C10.944 8.87772 11.1455 8.8406 11.326 8.75208L11.3198 8.75521C11.5437 8.49896 11.7094 8.18646 11.7906 7.84062L11.7937 7.82604C11.9937 7.25312 12.2 6.65937 12.7104 6.44896C12.8297 6.40005 12.9575 6.37527 13.0865 6.37604H13.0979H13.0969C13.551 6.42292 13.9635 6.56354 14.3271 6.77812L14.3125 6.77083C14.6132 6.96859 14.9622 7.0806 15.3219 7.09479H15.326C15.5521 7.05104 15.8469 6.71979 16.1073 6.42812C16.5177 5.97083 16.9385 5.5 17.5 5.5C18.0615 5.5 18.4812 5.97083 18.8885 6.42708C19.149 6.71875 19.4448 7.05 19.6698 7.09375C20.0333 7.07697 20.3858 6.96332 20.6906 6.76458L20.6823 6.76979C21.0503 6.5536 21.4607 6.41963 21.8854 6.37708L21.8979 6.37604H21.9083C22.0437 6.37604 22.1729 6.40312 22.2906 6.45208L22.2844 6.45C22.7958 6.6625 23.0031 7.25417 23.201 7.82708C23.2854 8.1875 23.451 8.5 23.6771 8.75833L23.675 8.75625C23.8555 8.84361 24.0567 8.8793 24.2562 8.85937H24.2521C24.4042 8.85937 24.5646 8.85 24.725 8.84167C24.8979 8.83229 25.0708 8.82292 25.2354 8.82292C25.4332 8.80443 25.6327 8.82508 25.8225 8.88371C26.0123 8.94233 26.1887 9.03777 26.3417 9.16458L26.3396 9.1625C26.5029 9.39642 26.6155 9.66195 26.6701 9.942C26.7246 10.222 26.7199 10.5104 26.6562 10.7885L26.6583 10.775C26.5971 11.1313 26.6276 11.4973 26.7469 11.8385L26.7427 11.824C26.9979 12.049 27.3115 12.2146 27.6573 12.2948L27.6719 12.2979C28.2448 12.4979 28.8385 12.7042 29.049 13.2146C29.1087 13.4904 29.1107 13.7756 29.0547 14.0523C28.9988 14.3289 28.8862 14.5909 28.724 14.8219L28.7281 14.8156C28.5373 15.1188 28.4262 15.4653 28.4052 15.8229V15.8292C28.449 16.0552 28.7802 16.35 29.0719 16.6104C29.5312 17.0198 30.0021 17.4396 30.0021 18.001C30.0021 18.5625 29.5312 18.9833 29.075 19.3906C28.7833 19.651 28.4521 19.9458 28.4083 20.1719C28.4312 20.55 28.549 20.8969 28.7365 21.1948L28.7312 21.1854C28.8939 21.4175 29.0062 21.681 29.0609 21.9591C29.1156 22.2372 29.1116 22.5236 29.049 22.8L29.051 22.7865C28.8396 23.299 28.2469 23.5052 27.674 23.7031C27.3288 23.7825 27.0088 23.9464 26.7427 24.1802L26.7448 24.1781C26.6274 24.5192 26.5994 24.8846 26.6635 25.2396L26.6615 25.2271C26.7227 25.5046 26.7256 25.7917 26.67 26.0704C26.6144 26.349 26.5016 26.6131 26.3385 26.8458L26.3427 26.8396C26.1896 26.9663 26.0129 27.0615 25.8229 27.1197C25.6329 27.178 25.4332 27.1982 25.2354 27.1792H25.2417C25.075 27.1792 24.9031 27.1698 24.7312 27.1604C24.5738 27.1497 24.4161 27.1434 24.2583 27.1417C24.0581 27.1229 23.8565 27.1601 23.676 27.249L23.6823 27.2458C23.4531 27.5077 23.2914 27.8217 23.2115 28.1604L23.2083 28.175C23.0083 28.7479 22.8021 29.3417 22.2917 29.5521C22.1724 29.601 22.0446 29.6258 21.9156 29.625H21.9042C21.47 29.5817 21.0515 29.4441 20.676 29.2219L20.6896 29.2292C20.389 29.0313 20.0399 28.9196 19.6802 28.9062H19.676C19.45 28.95 19.1552 29.2812 18.8948 29.5729C18.4833 30.0292 18.0635 30.5 17.501 30.5C16.9385 30.5 16.5188 30.0292 16.1104 29.574ZM19.7896 13.1135L14.7062 22.351C14.6918 22.3773 14.6844 22.4069 14.6849 22.4369C14.6853 22.467 14.6936 22.4963 14.7088 22.5222C14.724 22.548 14.7457 22.5695 14.7718 22.5844C14.7978 22.5993 14.8273 22.6072 14.8573 22.6073H15.7396C15.7702 22.6073 15.8003 22.5992 15.8267 22.5836C15.8531 22.568 15.8748 22.5456 15.8896 22.5187L20.9656 13.2792C20.9801 13.2529 20.9875 13.2233 20.987 13.1933C20.9866 13.1633 20.9783 13.1339 20.9631 13.108C20.9478 13.0822 20.9261 13.0607 20.9001 13.0458C20.8741 13.0309 20.8446 13.023 20.8146 13.0229H19.9406C19.9097 13.023 19.8794 13.0314 19.8529 13.0471C19.8263 13.0629 19.8045 13.0865 19.7896 13.1135ZM19.0562 17.8521C18.9239 17.9615 18.8173 18.0988 18.7442 18.2542C18.6711 18.4097 18.6332 18.5793 18.6333 18.751V21.2521C18.6333 21.6104 18.7979 21.9302 19.0552 22.1406L19.0573 22.1427C19.324 22.3656 19.6698 22.5 20.0479 22.5C20.426 22.5 20.7719 22.3646 21.0406 22.1406L21.0385 22.1427C21.299 21.9312 21.4635 21.6115 21.4635 21.2531V18.7531C21.4635 18.3948 21.3021 18.0729 21.049 17.8583L21.0469 17.8573C20.7829 17.6201 20.4403 17.4891 20.0854 17.4896H20.0531H20.0552H20.0229C19.667 17.4891 19.3232 17.6187 19.0562 17.8542L19.0583 17.8531L19.0562 17.8521ZM14.6354 13.3656C14.503 13.4751 14.3965 13.6124 14.3234 13.7678C14.2503 13.9232 14.2124 14.0928 14.2125 14.2646V16.7646C14.2125 17.124 14.376 17.4458 14.6344 17.6573L14.6365 17.6594C14.9031 17.8854 15.25 18.0219 15.6292 18.0219C16.0083 18.0219 16.3562 17.8844 16.624 17.6573L16.6219 17.6594C16.8844 17.4458 17.05 17.124 17.05 16.7625V14.2688C17.05 13.9073 16.8865 13.5854 16.6281 13.3708L16.626 13.3698C16.3479 13.1329 15.9944 13.0028 15.629 13.003C15.2636 13.0032 14.9102 13.1336 14.6323 13.3708L14.6344 13.3687L14.6354 13.3656ZM19.8208 21.3875C19.7984 21.3697 19.7803 21.347 19.7679 21.3212C19.7555 21.2954 19.749 21.2672 19.749 21.2385V18.7375C19.749 18.6771 19.7771 18.624 19.8198 18.5896C19.8739 18.5427 19.943 18.5168 20.0146 18.5167H20.0281H20.0271H20.0396C20.1113 18.5166 20.1807 18.5421 20.2354 18.5885C20.2577 18.6063 20.2757 18.6288 20.2881 18.6544C20.3006 18.6799 20.3071 18.708 20.3073 18.7365V21.2385C20.3073 21.2669 20.301 21.295 20.2887 21.3206C20.2764 21.3462 20.2586 21.3687 20.2365 21.3865C20.1802 21.4323 20.1073 21.4594 20.0281 21.4594C19.949 21.4594 19.876 21.4323 19.8187 21.3854H19.8198L19.8208 21.3875ZM15.4042 16.9021C15.3819 16.8841 15.3639 16.8615 15.3514 16.8357C15.339 16.8099 15.3325 16.7817 15.3323 16.7531V14.2531C15.3323 14.1927 15.3604 14.1396 15.4031 14.1042C15.4594 14.0583 15.5323 14.0312 15.6115 14.0312C15.6906 14.0312 15.7635 14.0583 15.8208 14.1052C15.8432 14.123 15.8603 14.1457 15.8727 14.1715C15.8852 14.1973 15.8916 14.2255 15.8917 14.2542V16.7552C15.8916 16.7837 15.8852 16.8119 15.873 16.8376C15.8607 16.8634 15.8429 16.8861 15.8208 16.9042C15.7646 16.95 15.6917 16.9771 15.6125 16.9771C15.5333 16.9771 15.4604 16.95 15.4031 16.9031L15.4042 16.9021Z"
        fill="#F8FD00"
      />
    </g>
    <defs>
      <clipPath id="clip0_1115_396">
        <rect
          width="25"
          height="25"
          fill="white"
          transform="translate(5 5.5)"
        />
      </clipPath>
    </defs>
  </svg>
