<svg
							width="100"
							height="104"
							viewBox="0 0 100 104"
							fill="none"
							xmlns="http://www.w3.org/2000/svg"
						>
							<path
								d="M62.5 35.8177V27.7175C62.5 25.5693 61.6769 23.509 60.2118 21.9899C58.7466 20.4708 56.7595 19.6174 54.6875 19.6174H17.1875C15.1155 19.6174 13.1284 20.4708 11.6632 21.9899C10.1981 23.509 9.375 25.5693 9.375 27.7175V76.3182C9.375 78.4665 10.1981 80.5268 11.6632 82.0459C13.1284 83.5649 15.1155 84.4183 17.1875 84.4183H54.6875C56.7595 84.4183 58.7466 83.5649 60.2118 82.0459C61.6769 80.5268 62.5 78.4665 62.5 76.3182V68.2181M75 35.8177L90.625 52.0179M90.625 52.0179L75 68.2181M90.625 52.0179H37.3047"
								stroke="#2C4EA5"
								stroke-width="3"
								stroke-linecap="round"
								stroke-linejoin="round"
							/>
						</svg>