  <svg
    width="79"
    height="80"
    viewBox="0 0 79 80"
    fill="none"
    xmlns="http://www.w3.org/2000/svg"
  >
    <path
      d="M49.375 27.8643V21.6924C49.375 20.0555 48.7248 18.4857 47.5673 17.3282C46.4098 16.1708 44.84 15.5205 43.2031 15.5205H13.5781C11.9412 15.5205 10.3714 16.1708 9.21395 17.3282C8.0565 18.4857 7.40625 20.0555 7.40625 21.6924V58.7236C7.40625 60.3605 8.0565 61.9304 9.21395 63.0878C10.3714 64.2453 11.9412 64.8955 13.5781 64.8955H43.2031C44.84 64.8955 46.4098 64.2453 47.5673 63.0878C48.7248 61.9304 49.375 60.3605 49.375 58.7236V52.5518M59.25 27.8643L71.5938 40.208M71.5938 40.208L59.25 52.5518M71.5938 40.208H29.4707"
      stroke="#F48218"
      stroke-width="5"
      stroke-linecap="round"
      stroke-linejoin="round"
    />
  </svg>
