  <svg
    width="50"
    height="51"
    viewBox="0 0 50 51"
    fill="none"
    xmlns="http://www.w3.org/2000/svg"
  >
    <rect y="0.5" width="50" height="50" rx="25" fill="#2C4EA5" />
    <path
      d="M19.9896 16.5852C20.8743 16.4345 21.7815 16.4842 22.6444 16.7307C23.5073 16.9771 24.3038 17.4141 24.9754 18.0093L25.0123 18.0423L25.0463 18.0123C25.6872 17.4499 26.4407 17.0307 27.2565 16.7825C28.0723 16.5344 28.9316 16.463 29.7772 16.5732L30.0231 16.6092C31.0889 16.7932 32.0851 17.2619 32.9063 17.9658C33.7274 18.6696 34.3428 19.5824 34.6874 20.6075C35.0321 21.6325 35.093 22.7316 34.8638 23.7885C34.6346 24.8453 34.1239 25.8205 33.3856 26.6108L33.2057 26.7957L33.1577 26.8366L25.711 34.2109C25.5392 34.381 25.3115 34.483 25.0702 34.4981C24.8289 34.5131 24.5903 34.4402 24.3986 34.2929L24.3047 34.2109L16.815 26.7937C16.0216 26.0218 15.4573 25.0455 15.1847 23.9727C14.9121 22.9 14.9417 21.7728 15.2704 20.7159C15.5991 19.659 16.2139 18.7136 17.0469 17.9846C17.8798 17.2555 18.8983 16.7712 19.9896 16.5852Z"
      fill="white"
    />
  </svg>
