<svg width="26" height="22" viewBox="0 0 26 22" fill="none" xmlns="http://www.w3.org/2000/svg">
<path d="M18.4373 0.419922C17.37 0.419772 16.3184 0.666932 15.3718 1.14042C14.4251 1.6139 13.6115 2.29974 12.9998 3.13969C12.3882 2.29974 11.5745 1.6139 10.6279 1.14042C9.6813 0.666932 8.62968 0.419772 7.56234 0.419922C5.79975 0.419922 4.10936 1.09228 2.86302 2.28908C1.61669 3.48588 0.916504 5.10909 0.916504 6.80162C0.916504 13.4374 8.77067 18.9129 12.9998 21.7116C17.229 18.9129 25.0832 13.4374 25.0832 6.80162C25.0832 5.96356 24.9113 5.13371 24.5773 4.35945C24.2433 3.58519 23.7538 2.88167 23.1367 2.28908C22.5195 1.69648 21.7869 1.22641 20.9806 0.9057C20.1743 0.584989 19.3101 0.419922 18.4373 0.419922Z" fill="#2C4EA5"/>
</svg>
