  <svg
    width="42"
    height="32"
    viewBox="0 0 42 32"
    fill="none"
    xmlns="http://www.w3.org/2000/svg"
  >
    <path
      d="M37.1875 16.0002H15.5663M7.9345 16.0002H4.8125M7.9345 16.0002C7.9345 15.2293 8.33644 14.49 9.05189 13.9449C9.76734 13.3998 10.7377 13.0935 11.7495 13.0935C12.7613 13.0935 13.7317 13.3998 14.4471 13.9449C15.1626 14.49 15.5645 15.2293 15.5645 16.0002C15.5645 16.7711 15.1626 17.5104 14.4471 18.0555C13.7317 18.6006 12.7613 18.9068 11.7495 18.9068C10.7377 18.9068 9.76734 18.6006 9.05189 18.0555C8.33644 17.5104 7.9345 16.7711 7.9345 16.0002ZM37.1875 24.8095H27.1285M27.1285 24.8095C27.1285 25.5806 26.7256 26.3207 26.01 26.866C25.2944 27.4112 24.3238 27.7175 23.3118 27.7175C22.2999 27.7175 21.3296 27.4099 20.6141 26.8648C19.8987 26.3197 19.4967 25.5804 19.4967 24.8095M27.1285 24.8095C27.1285 24.0384 26.7256 23.2996 26.01 22.7544C25.2944 22.2092 24.3238 21.9028 23.3118 21.9028C22.2999 21.9028 21.3296 22.2091 20.6141 22.7542C19.8987 23.2993 19.4967 24.0386 19.4967 24.8095M19.4967 24.8095H4.8125M37.1875 7.19085H31.7537M24.122 7.19085H4.8125M24.122 7.19085C24.122 6.41995 24.5239 5.68063 25.2394 5.13552C25.9548 4.59042 26.9252 4.28418 27.937 4.28418C28.438 4.28418 28.9341 4.35936 29.3969 4.50544C29.8598 4.65151 30.2804 4.86561 30.6346 5.13552C30.9889 5.40543 31.2699 5.72586 31.4616 6.07851C31.6533 6.43117 31.752 6.80914 31.752 7.19085C31.752 7.57256 31.6533 7.95053 31.4616 8.30318C31.2699 8.65583 30.9889 8.97626 30.6346 9.24617C30.2804 9.51608 29.8598 9.73018 29.3969 9.87626C28.9341 10.0223 28.438 10.0975 27.937 10.0975C26.9252 10.0975 25.9548 9.79128 25.2394 9.24617C24.5239 8.70106 24.122 7.96174 24.122 7.19085Z"
      stroke="#2C4EA5"
      stroke-width="1.5"
      stroke-miterlimit="10"
      stroke-linecap="round"
    />
  </svg>
