<svg width="43" height="40" viewBox="0 0 43 40" fill="none" xmlns="http://www.w3.org/2000/svg">
<path d="M30.6404 4.01855C35.2053 4.01855 38.9178 7.75605 38.9178 12.3519C38.9178 22.079 27.4473 30.979 21.3283 35.3165C15.2092 30.979 3.73879 22.079 3.73879 12.3519C3.73879 7.75605 7.45121 4.01855 12.0162 4.01855C13.3454 4.02157 14.6543 4.34598 15.833 4.96449C17.0117 5.583 18.0255 6.4775 18.7892 7.57272L21.3283 11.2123L23.8674 7.5748C24.6306 6.47895 25.6443 5.58385 26.823 4.96495C28.0017 4.34604 29.311 4.02146 30.6404 4.01855ZM30.6404 0.893555C28.8125 0.893286 27.0115 1.33706 25.3903 2.18721C23.7692 3.03735 22.3757 4.26876 21.3283 5.77689C20.2808 4.26876 18.8874 3.03735 17.2662 2.18721C15.6451 1.33706 13.8441 0.893286 12.0162 0.893555C8.99765 0.893555 6.10274 2.10077 3.96831 4.24962C1.83388 6.39848 0.634766 9.31295 0.634766 12.3519C0.634766 24.2665 14.0855 34.0977 21.3283 39.1227C28.571 34.0977 42.0218 24.2665 42.0218 12.3519C42.0218 10.8472 41.7274 9.35716 41.1554 7.96697C40.5835 6.57678 39.7451 5.31363 38.6882 4.24962C37.6314 3.18562 36.3767 2.3416 34.9958 1.76577C33.615 1.18993 32.135 0.893555 30.6404 0.893555Z" fill="#687FAD"/>
</svg>
