<svg width="30" height="26" viewBox="0 0 30 26" fill="none" xmlns="http://www.w3.org/2000/svg">
<path d="M21.3745 1.91431H21.3747C22.2754 1.91431 23.166 2.08044 23.9949 2.40185C24.8238 2.72324 25.5729 3.19273 26.2008 3.78055C26.8287 4.36824 27.3229 5.06232 27.6588 5.82129C27.9945 6.58006 28.1663 7.39074 28.1663 8.20768C28.1663 11.5951 26.0987 14.8111 23.2365 17.6639C20.5977 20.2939 17.4221 22.4788 14.9997 24.0561C12.5773 22.4788 9.40162 20.2939 6.7629 17.6639C3.90068 14.8111 1.83301 11.5951 1.83301 8.20768C1.83301 6.5607 2.53136 4.96666 3.79851 3.78055C5.06789 2.59235 6.80287 1.91431 8.62467 1.91431H8.62481C9.72638 1.91416 10.8092 2.16296 11.7806 2.63658C12.7517 3.11011 13.5797 3.7927 14.1985 4.62107L14.9997 5.69355L15.8008 4.62107C16.4196 3.7927 17.2476 3.11011 18.2188 2.63658C19.1902 2.16296 20.273 1.91416 21.3745 1.91431Z" stroke="#FF0000" stroke-width="2"/>
</svg>
