  <svg
    width="50"
    height="50"
    viewBox="0 0 50 50"
    fill="none"
    xmlns="http://www.w3.org/2000/svg"
  >
    <rect width="50" height="50" rx="25" fill="#2C4EA5" />
    <path
      d="M25.4333 15.16C25.3126 15.0568 25.1589 15 25 15C24.8411 15 24.6874 15.0568 24.5667 15.16L15 23.36V33C15 33.5305 15.2107 34.0392 15.5858 34.4143C15.9609 34.7893 16.4696 35 17 35H22.3333C22.5101 35 22.6797 34.9298 22.8047 34.8048C22.9298 34.6798 23 34.5102 23 34.3334V30.3334C23 29.8029 23.2107 29.2942 23.5858 28.9192C23.9609 28.5441 24.4696 28.3334 25 28.3334C25.5304 28.3334 26.0391 28.5441 26.4142 28.9192C26.7893 29.2942 27 29.8029 27 30.3334V34.3334C27 34.5102 27.0702 34.6798 27.1953 34.8048C27.3203 34.9298 27.4899 35 27.6667 35H33C33.5304 35 34.0391 34.7893 34.4142 34.4143C34.7893 34.0392 35 33.5305 35 33V23.36L25.4333 15.16Z"
      fill="white"
    />
  </svg>
