  <svg
    width="80"
    height="80"
    viewBox="0 0 80 80"
    fill="none"
    xmlns="http://www.w3.org/2000/svg"
  >
    <rect
      x="1"
      y="1"
      width="78"
      height="78"
      rx="39"
      stroke="black"
      stroke-width="2"
    />
    <path
      d="M26.75 44.875L26.575 41.025L35.75 31.5H39.4L31.775 39.6L29.975 41.575L26.75 44.875ZM23.85 49V31.5H27.1V49H23.85ZM36.05 49L29.35 41.025L31.5 38.65L39.85 49H36.05ZM49.6275 49.25C48.2609 49.25 47.0025 49.0333 45.8525 48.6C44.7192 48.15 43.7275 47.525 42.8775 46.725C42.0275 45.9083 41.3692 44.95 40.9025 43.85C40.4359 42.75 40.2025 41.55 40.2025 40.25C40.2025 38.95 40.4359 37.75 40.9025 36.65C41.3692 35.55 42.0275 34.6 42.8775 33.8C43.7442 32.9833 44.7525 32.3583 45.9025 31.925C47.0525 31.475 48.3109 31.25 49.6775 31.25C51.1609 31.25 52.4942 31.4917 53.6775 31.975C54.8775 32.4583 55.8859 33.1667 56.7025 34.1L54.6525 36.1C53.9692 35.4167 53.2275 34.9167 52.4275 34.6C51.6442 34.2667 50.7775 34.1 49.8275 34.1C48.9109 34.1 48.0609 34.25 47.2775 34.55C46.4942 34.85 45.8192 35.275 45.2525 35.825C44.6859 36.375 44.2442 37.025 43.9275 37.775C43.6275 38.525 43.4775 39.35 43.4775 40.25C43.4775 41.1333 43.6275 41.95 43.9275 42.7C44.2442 43.45 44.6859 44.1083 45.2525 44.675C45.8192 45.225 46.4859 45.65 47.2525 45.95C48.0192 46.25 48.8692 46.4 49.8025 46.4C50.6692 46.4 51.5025 46.2667 52.3025 46C53.1192 45.7167 53.8942 45.25 54.6275 44.6L56.4775 47.025C55.5609 47.7583 54.4942 48.3167 53.2775 48.7C52.0775 49.0667 50.8609 49.25 49.6275 49.25ZM53.4025 46.6V40.05H56.4775V47.025L53.4025 46.6Z"
      fill="black"
    />
  </svg>
