  <svg
    width="50"
    height="37"
    viewBox="0 0 50 37"
    fill="none"
    xmlns="http://www.w3.org/2000/svg"
  >
    <rect width="50" height="37" rx="10" fill="#ADAAA7" />
    <path
      d="M29.1872 10.6875C31.4851 10.6875 33.3538 12.5563 33.3538 14.8542C33.3538 19.7177 27.5799 24.1677 24.4997 26.3365C21.4195 24.1677 15.6455 19.7177 15.6455 14.8542C15.6455 12.5563 17.5143 10.6875 19.8122 10.6875C20.4812 10.689 21.1402 10.8512 21.7335 11.1605C22.3268 11.4697 22.8371 11.917 23.2215 12.4646L24.4997 14.2844L25.7778 12.4656C26.162 11.9177 26.6723 11.4701 27.2656 11.1607C27.8589 10.8512 28.518 10.689 29.1872 10.6875ZM29.1872 9.125C28.2671 9.12487 27.3605 9.34675 26.5444 9.77183C25.7284 10.1969 25.0269 10.8126 24.4997 11.5667C23.9724 10.8126 23.271 10.1969 22.4549 9.77183C21.6389 9.34675 20.7323 9.12487 19.8122 9.125C18.2927 9.125 16.8355 9.72861 15.761 10.803C14.6866 11.8775 14.083 13.3347 14.083 14.8542C14.083 20.8115 20.8538 25.7271 24.4997 28.2396C28.1455 25.7271 34.9163 20.8115 34.9163 14.8542C34.9163 14.1018 34.7682 13.3568 34.4802 12.6617C34.1923 11.9666 33.7703 11.335 33.2383 10.803C32.7063 10.271 32.0747 9.84902 31.3796 9.56111C30.6845 9.27319 29.9395 9.125 29.1872 9.125Z"
      fill="white"
    />
  </svg>
