  <svg
    width="24"
    height="25"
    viewBox="0 0 24 25"
    fill="white"
    xmlns="http://www.w3.org/2000/svg"
  >
    <path
      d="M12 1.5C14.3869 1.5 16.6761 2.44821 18.364 4.13604C20.0518 5.82387 21 8.11305 21 10.5C21 14.226 18.16 18.13 12.6 22.3C12.4269 22.4298 12.2164 22.5 12 22.5C11.7836 22.5 11.5731 22.4298 11.4 22.3C5.84 18.13 3 14.226 3 10.5C3 8.11305 3.94821 5.82387 5.63604 4.13604C7.32387 2.44821 9.61305 1.5 12 1.5ZM12 3.5C10.1435 3.5 8.36301 4.2375 7.05025 5.55025C5.7375 6.86301 5 8.64348 5 10.5C5 13.21 7.118 16.336 11.448 19.806L12 20.242L12.552 19.806C16.882 16.336 19 13.21 19 10.5C19 8.64348 18.2625 6.86301 16.9497 5.55025C15.637 4.2375 13.8565 3.5 12 3.5ZM12 8.5C12.5304 8.5 13.0391 8.71071 13.4142 9.08579C13.7893 9.46086 14 9.96957 14 10.5C14 11.0304 13.7893 11.5391 13.4142 11.9142C13.0391 12.2893 12.5304 12.5 12 12.5C11.4696 12.5 10.9609 12.2893 10.5858 11.9142C10.2107 11.5391 10 11.0304 10 10.5C10 9.96957 10.2107 9.46086 10.5858 9.08579C10.9609 8.71071 11.4696 8.5 12 8.5Z"
      fill="#fff"
    />
  </svg>