<svg
	width="172"
	height="81"
	viewBox="0 0 172 81"
	fill="none"
	xmlns="http://www.w3.org/2000/svg"
>
    <path
      d="M152.67 21.2663C170.236 22.4159 172.53 31.8996 171.913 37.2641C171.206 42.8202 166.528 47.131 159.732 50.0049C146.138 50.0049 136.517 46.2688 136.517 46.2688L135.811 32.7617C145.609 40.138 165.822 41.2875 168.647 34.1029C170.765 28.3552 166.087 19.9252 140.666 27.2056C130.868 17.0513 132.28 5.36434 146.227 0.191406C159.732 0.191406 169.441 3.44844 169.441 3.44844L170.059 17.0513C170.059 17.0513 164.763 13.028 156.289 11.112C146.227 8.90876 137.4 8.42978 135.723 12.1658C134.134 15.9018 138.018 20.3084 152.67 21.2663Z"
      fill="white"
    />
    <path
      d="M130.553 19.3506H104.602C99.5711 34.3904 99.5711 45.1195 104.867 47.3228C110.693 49.7176 121.815 41.3835 116.43 23.6614H130.906C130.906 40.4255 121.991 49.8134 111.399 49.8134C100.542 49.8134 92.0684 39.9465 92.0684 24.9067C92.0684 9.86689 100.542 0 111.487 0C120.844 0 128.7 7.56781 130.553 19.3506ZM118.637 2.87385C114.577 1.14954 108.663 8.04679 105.044 18.1053H111.223C122.786 18.1053 123.492 4.88555 118.637 2.87385Z"
      fill="white"
    />
    <path
      d="M85.3712 0.958008L87.7544 48.8556H73.5433C74.426 47.1312 79.9868 32.3788 80.1634 2.10755H79.1924C78.0449 25.7689 70.1891 47.8018 63.7455 49.8135C52.9768 49.8135 44.2383 39.755 44.2383 24.9068C44.2383 16.0936 48.3869 0.958008 48.3869 0.958008H63.6573C63.6573 0.958008 59.7735 10.4417 56.0662 21.9371C52.1824 34.0073 51.2115 44.5448 55.8897 46.5565C62.1567 49.2387 75.8382 35.2527 78.2215 0.958008H85.3712Z"
      fill="white"
    />
    <path
      d="M42.3972 81H28.206C32.4369 55.4264 33.5828 29.9547 33.4065 2.24151H32.4369C31.3792 27.4075 25.8262 50.8415 19.3916 52.9811C8.6381 52.9811 0 42.283 0 26.4906C0 10.6981 8.6381 0 19.4798 0C23.887 0 27.9416 1.83396 31.2029 5.09434L31.4674 1.01887H38.6952L42.3972 81ZM11.635 49.6189C17.5406 52.2679 28.0298 39.3283 31.0266 6.62264C29.2638 4.68679 27.5009 3.46415 26.1787 3.15849C21.5952 2.13962 15.7778 10.1887 11.7231 23.434C7.75666 36.4755 6.96337 47.4792 11.635 49.6189Z"
      fill="white"
    />
    <path
      d="M125.246 73.8105H127.458C128.017 73.8105 128.456 73.9759 128.773 74.3067C129.09 74.6375 129.249 75.0797 129.249 75.6333C129.249 76.0586 129.153 76.3928 128.96 76.6359C128.773 76.8789 128.531 77.051 128.232 77.1523V77.1827C128.599 77.2772 128.901 77.4561 129.137 77.7194C129.373 77.9759 129.492 78.3506 129.492 78.8434C129.492 79.127 129.448 79.3936 129.361 79.6434C129.274 79.8932 129.149 80.1093 128.988 80.2915C128.832 80.4738 128.646 80.619 128.428 80.727C128.216 80.8282 127.986 80.8789 127.737 80.8789H125.246V73.8105ZM127.504 80.1396C127.865 80.1396 128.148 80.0519 128.353 79.8763C128.559 79.7008 128.661 79.4308 128.661 79.0662V78.651C128.661 78.2932 128.559 78.0266 128.353 77.851C128.148 77.6688 127.865 77.5776 127.504 77.5776H126.03V80.1396H127.504ZM127.374 76.8789C127.703 76.8789 127.961 76.8012 128.148 76.646C128.335 76.484 128.428 76.2409 128.428 75.9169V75.5219C128.428 75.1979 128.335 74.9548 128.148 74.7928C127.961 74.6308 127.703 74.5498 127.374 74.5498H126.03V76.8789H127.374Z"
      fill="white"
    />
    <path
      d="M121.628 80.9998C121.23 80.9998 120.888 80.9188 120.602 80.7568C120.316 80.588 120.079 80.3484 119.893 80.0378C119.706 79.7273 119.569 79.3458 119.482 78.8935C119.395 78.4412 119.352 77.9247 119.352 77.3442C119.352 76.7703 119.395 76.2572 119.482 75.8049C119.569 75.3459 119.706 74.961 119.893 74.6505C120.079 74.3399 120.316 74.1037 120.602 73.9416C120.888 73.7729 121.23 73.6885 121.628 73.6885C122.026 73.6885 122.369 73.7729 122.655 73.9416C122.941 74.1037 123.177 74.3399 123.364 74.6505C123.55 74.961 123.687 75.3459 123.774 75.8049C123.861 76.2572 123.905 76.7703 123.905 77.3442C123.905 77.9247 123.861 78.4412 123.774 78.8935C123.687 79.3458 123.55 79.7273 123.364 80.0378C123.177 80.3484 122.941 80.588 122.655 80.7568C122.369 80.9188 122.026 80.9998 121.628 80.9998ZM121.628 80.2606C121.89 80.2606 122.11 80.2066 122.291 80.0986C122.471 79.9838 122.62 79.8252 122.739 79.6226C122.857 79.4201 122.941 79.1771 122.991 78.8935C123.047 78.6032 123.075 78.2792 123.075 77.9214V76.7669C123.075 76.4159 123.047 76.0952 122.991 75.8049C122.941 75.5146 122.857 75.2682 122.739 75.0657C122.62 74.8632 122.471 74.7079 122.291 74.5999C122.11 74.4851 121.89 74.4277 121.628 74.4277C121.367 74.4277 121.146 74.4851 120.966 74.5999C120.785 74.7079 120.636 74.8632 120.518 75.0657C120.4 75.2682 120.313 75.5146 120.257 75.8049C120.207 76.0952 120.182 76.4159 120.182 76.7669V77.9214C120.182 78.2792 120.207 78.6032 120.257 78.8935C120.313 79.1771 120.4 79.4201 120.518 79.6226C120.636 79.8252 120.785 79.9838 120.966 80.0986C121.146 80.2066 121.367 80.2606 121.628 80.2606Z"
      fill="white"
    />
    <path
      d="M114.074 80.8789V73.8105H116.444C117.048 73.8105 117.508 73.9894 117.825 74.3473C118.142 74.7051 118.301 75.2046 118.301 75.846C118.301 76.4873 118.142 76.9869 117.825 77.3447C117.508 77.7025 117.048 77.8814 116.444 77.8814H114.858V80.8789H114.074ZM114.858 77.1422H116.426C116.755 77.1422 117.01 77.0544 117.191 76.8789C117.377 76.6966 117.471 76.4401 117.471 76.1093V75.5827C117.471 75.2519 117.377 74.9987 117.191 74.8232C117.01 74.6409 116.755 74.5498 116.426 74.5498H114.858V77.1422Z"
      fill="white"
    />
    <path
      d="M112.129 80.8789L111.578 78.8637H109.292L108.741 80.8789H107.93L109.926 73.8105H110.962L112.959 80.8789H112.129ZM110.477 74.7118H110.393L109.479 78.1244H111.391L110.477 74.7118Z"
      fill="white"
    />
    <path
      d="M103.342 80.1396H104.312L104.638 79.2282L102.455 73.8105H103.295L104.592 77.132L104.974 78.2662H104.993L105.348 77.1422L106.486 73.8105H107.288L105.161 79.9067C105.093 80.1093 105.021 80.2747 104.946 80.4029C104.872 80.5312 104.785 80.6325 104.685 80.7067C104.592 80.7742 104.48 80.8215 104.349 80.8485C104.225 80.8687 104.076 80.8789 103.901 80.8789H103.342V80.1396Z"
      fill="white"
    />
    <path
      d="M99.4623 80.9998C98.666 80.9998 98.072 80.6859 97.6801 80.0581C97.2944 79.4302 97.1016 78.5256 97.1016 77.3442C97.1016 76.1627 97.2944 75.2581 97.6801 74.6302C98.072 74.0024 98.666 73.6885 99.4623 73.6885C99.7609 73.6885 100.019 73.7324 100.237 73.8201C100.454 73.9079 100.641 74.026 100.797 74.1745C100.952 74.3231 101.083 74.4918 101.188 74.6809C101.294 74.8632 101.388 75.0488 101.468 75.2378L100.797 75.572C100.741 75.4167 100.675 75.2716 100.601 75.1366C100.526 74.9948 100.436 74.8733 100.33 74.772C100.231 74.664 100.109 74.5796 99.9661 74.5189C99.8293 74.4581 99.6613 74.4277 99.4623 74.4277C98.946 74.4277 98.5603 74.6404 98.3052 75.0657C98.0564 75.491 97.932 76.0581 97.932 76.7669V77.9214C97.932 78.6302 98.0564 79.1973 98.3052 79.6226C98.5603 80.0479 98.946 80.2606 99.4623 80.2606C99.6613 80.2606 99.8293 80.2302 99.9661 80.1695C100.109 80.1087 100.231 80.0277 100.33 79.9264C100.436 79.8184 100.526 79.6969 100.601 79.5619C100.675 79.4201 100.741 79.2716 100.797 79.1163L101.468 79.4505C101.388 79.6463 101.294 79.8353 101.188 80.0176C101.083 80.1998 100.952 80.3652 100.797 80.5138C100.641 80.6623 100.454 80.7804 100.237 80.8682C100.019 80.956 99.7609 80.9998 99.4623 80.9998Z"
      fill="white"
    />
    <path
      d="M93.8685 80.9998C93.0723 80.9998 92.4782 80.6859 92.0863 80.0581C91.7006 79.4302 91.5078 78.5256 91.5078 77.3442C91.5078 76.1627 91.7006 75.2581 92.0863 74.6302C92.4782 74.0024 93.0723 73.6885 93.8685 73.6885C94.1671 73.6885 94.4253 73.7324 94.643 73.8201C94.8607 73.9079 95.0473 74.026 95.2028 74.1745C95.3583 74.3231 95.489 74.4918 95.5947 74.6809C95.7005 74.8632 95.7938 75.0488 95.8747 75.2378L95.2028 75.572C95.1468 75.4167 95.0815 75.2716 95.0069 75.1366C94.9322 74.9948 94.842 74.8733 94.7363 74.772C94.6368 74.664 94.5155 74.5796 94.3724 74.5189C94.2355 74.4581 94.0676 74.4277 93.8685 74.4277C93.3522 74.4277 92.9665 74.6404 92.7115 75.0657C92.4627 75.491 92.3383 76.0581 92.3383 76.7669V77.9214C92.3383 78.6302 92.4627 79.1973 92.7115 79.6226C92.9665 80.0479 93.3522 80.2606 93.8685 80.2606C94.0676 80.2606 94.2355 80.2302 94.3724 80.1695C94.5155 80.1087 94.6368 80.0277 94.7363 79.9264C94.842 79.8184 94.9322 79.6969 95.0069 79.5619C95.0815 79.4201 95.1468 79.2716 95.2028 79.1163L95.8747 79.4505C95.7938 79.6463 95.7005 79.8353 95.5947 80.0176C95.489 80.1998 95.3583 80.3652 95.2028 80.5138C95.0473 80.6623 94.8607 80.7804 94.643 80.8682C94.4253 80.956 94.1671 80.9998 93.8685 80.9998Z"
      fill="white"
    />
    <path
      d="M86.0996 80.8789V73.8105H90.1119V74.5498H86.8834V76.9295H89.9999V77.6688H86.8834V80.1396H90.1119V80.8789H86.0996Z"
      fill="white"
    />
    <path
      d="M82.6791 80.9998C81.8828 80.9998 81.2888 80.6859 80.8969 80.0581C80.5112 79.4302 80.3184 78.5256 80.3184 77.3442C80.3184 76.1627 80.5112 75.2581 80.8969 74.6302C81.2888 74.0024 81.8828 73.6885 82.6791 73.6885C82.9777 73.6885 83.2358 73.7324 83.4535 73.8201C83.6712 73.9079 83.8579 74.026 84.0134 74.1745C84.1689 74.3231 84.2995 74.4918 84.4053 74.6809C84.511 74.8632 84.6043 75.0488 84.6852 75.2378L84.0134 75.572C83.9574 75.4167 83.8921 75.2716 83.8174 75.1366C83.7428 74.9948 83.6526 74.8733 83.5468 74.772C83.4473 74.664 83.326 74.5796 83.1829 74.5189C83.0461 74.4581 82.8781 74.4277 82.6791 74.4277C82.1628 74.4277 81.7771 74.6404 81.522 75.0657C81.2732 75.491 81.1488 76.0581 81.1488 76.7669V77.9214C81.1488 78.6302 81.2732 79.1973 81.522 79.6226C81.7771 80.0479 82.1628 80.2606 82.6791 80.2606C82.8781 80.2606 83.0461 80.2302 83.1829 80.1695C83.326 80.1087 83.4473 80.0277 83.5468 79.9264C83.6526 79.8184 83.7428 79.6969 83.8174 79.5619C83.8921 79.4201 83.9574 79.2716 84.0134 79.1163L84.6852 79.4505C84.6043 79.6463 84.511 79.8353 84.4053 80.0176C84.2995 80.1998 84.1689 80.3652 84.0134 80.5138C83.8579 80.6623 83.6712 80.7804 83.4535 80.8682C83.2358 80.956 82.9777 80.9998 82.6791 80.9998Z"
      fill="white"
    />
    <path
      d="M74.8164 73.8105H75.6002V76.9295H76.7479L78.1289 73.8105H78.9593L77.7183 76.6055C77.6126 76.8418 77.513 77.0072 77.4197 77.1017C77.3264 77.1894 77.2238 77.2434 77.1118 77.2637V77.3143C77.2486 77.3481 77.3637 77.419 77.457 77.527C77.5503 77.6282 77.653 77.8173 77.765 78.0941L78.6047 80.1396H79.2112V80.8789H78.6234C78.4368 80.8789 78.2719 80.8215 78.1289 80.7067C77.9858 80.5852 77.8614 80.3928 77.7556 80.1295L76.7479 77.6586H75.6002V80.8789H74.8164V73.8105Z"
      fill="white"
    />
    <path
      d="M72.9645 80.8789L72.414 78.8637H70.1279L69.5774 80.8789H68.7656L70.7624 73.8105H71.7982L73.795 80.8789H72.9645ZM71.3129 74.7118H71.229L70.3145 78.1244H72.2274L71.3129 74.7118Z"
      fill="white"
    />
    <path
      d="M58.0312 73.8105H58.815V77.3751L58.6844 79.4206H58.7311L61.3904 73.8105H62.1368V80.8789H61.353V77.3143L61.4837 75.2688H61.437L58.7777 80.8789H58.0312V73.8105Z"
      fill="white"
    />
    <path
      d="M142.029 60.4873H144.241C144.801 60.4873 145.239 60.6527 145.556 60.9835C145.874 61.3143 146.032 61.7565 146.032 62.3101C146.032 62.7354 145.936 63.0696 145.743 63.3126C145.556 63.5556 145.314 63.7278 145.015 63.8291V63.8594C145.382 63.954 145.684 64.1329 145.92 64.3961C146.157 64.6527 146.275 65.0274 146.275 65.5202C146.275 65.8037 146.231 66.0704 146.144 66.3202C146.057 66.57 145.933 66.786 145.771 66.9683C145.615 67.1506 145.429 67.2957 145.211 67.4037C145 67.505 144.769 67.5556 144.521 67.5556H142.029V60.4873ZM144.287 66.8164C144.648 66.8164 144.931 66.7286 145.136 66.5531C145.342 66.3776 145.444 66.1075 145.444 65.743V65.3278C145.444 64.97 145.342 64.7033 145.136 64.5278C144.931 64.3455 144.648 64.2544 144.287 64.2544H142.813V66.8164H144.287ZM144.157 63.5556C144.486 63.5556 144.745 63.478 144.931 63.3227C145.118 63.1607 145.211 62.9177 145.211 62.5936V62.1987C145.211 61.8746 145.118 61.6316 144.931 61.4696C144.745 61.3076 144.486 61.2265 144.157 61.2265H142.813V63.5556H144.157Z"
      fill="white"
    />
    <path
      d="M138.413 67.6776C138.015 67.6776 137.673 67.5966 137.387 67.4345C137.101 67.2658 136.865 67.0261 136.678 66.7155C136.491 66.405 136.354 66.0236 136.267 65.5712C136.18 65.1189 136.137 64.6025 136.137 64.0219C136.137 63.4481 136.18 62.935 136.267 62.4827C136.354 62.0236 136.491 61.6388 136.678 61.3282C136.865 61.0177 137.101 60.7814 137.387 60.6194C137.673 60.4506 138.015 60.3662 138.413 60.3662C138.812 60.3662 139.154 60.4506 139.44 60.6194C139.726 60.7814 139.962 61.0177 140.149 61.3282C140.336 61.6388 140.472 62.0236 140.56 62.4827C140.647 62.935 140.69 63.4481 140.69 64.0219C140.69 64.6025 140.647 65.1189 140.56 65.5712C140.472 66.0236 140.336 66.405 140.149 66.7155C139.962 67.0261 139.726 67.2658 139.44 67.4345C139.154 67.5966 138.812 67.6776 138.413 67.6776ZM138.413 66.9383C138.675 66.9383 138.896 66.8843 139.076 66.7763C139.256 66.6615 139.406 66.5029 139.524 66.3004C139.642 66.0978 139.726 65.8548 139.776 65.5712C139.832 65.281 139.86 64.9569 139.86 64.5991V63.4447C139.86 63.0936 139.832 62.773 139.776 62.4827C139.726 62.1924 139.642 61.946 139.524 61.7434C139.406 61.5409 139.256 61.3856 139.076 61.2776C138.896 61.1628 138.675 61.1054 138.413 61.1054C138.152 61.1054 137.931 61.1628 137.751 61.2776C137.571 61.3856 137.421 61.5409 137.303 61.7434C137.185 61.946 137.098 62.1924 137.042 62.4827C136.992 62.773 136.967 63.0936 136.967 63.4447V64.5991C136.967 64.9569 136.992 65.281 137.042 65.5712C137.098 65.8548 137.185 66.0978 137.303 66.3004C137.421 66.5029 137.571 66.6615 137.751 66.7763C137.931 66.8843 138.152 66.9383 138.413 66.9383Z"
      fill="white"
    />
    <path
      d="M130.766 60.4873H131.549V63.6063H132.697L134.078 60.4873H134.909L133.668 63.2822C133.562 63.5185 133.462 63.6839 133.369 63.7784C133.276 63.8662 133.173 63.9202 133.061 63.9405V63.9911C133.198 64.0248 133.313 64.0957 133.406 64.2037C133.5 64.305 133.602 64.494 133.714 64.7708L134.554 66.8164H135.16V67.5556H134.573C134.386 67.5556 134.221 67.4982 134.078 67.3835C133.935 67.262 133.811 67.0696 133.705 66.8063L132.697 64.3354H131.549V67.5556H130.766V60.4873Z"
      fill="white"
    />
    <path
      d="M125.264 67.5556V60.4873H127.634C128.237 60.4873 128.697 60.6662 129.015 61.024C129.332 61.3818 129.491 61.8814 129.491 62.5227C129.491 63.1641 129.332 63.6637 129.015 64.0215C128.697 64.3793 128.237 64.5582 127.634 64.5582H126.047V67.5556H125.264ZM126.047 63.8189H127.615C127.945 63.8189 128.2 63.7312 128.38 63.5556C128.567 63.3734 128.66 63.1168 128.66 62.786V62.2594C128.66 61.9286 128.567 61.6755 128.38 61.5C128.2 61.3177 127.945 61.2265 127.615 61.2265H126.047V63.8189Z"
      fill="white"
    />
    <path
      d="M123.316 67.5556L122.766 65.5404H120.479L119.929 67.5556H119.117L121.114 60.4873H122.15L124.147 67.5556H123.316ZM121.665 61.3886H121.581L120.666 64.8012H122.579L121.665 61.3886Z"
      fill="white"
    />
    <path
      d="M113.365 66.8164H113.925C114.205 66.3843 114.417 65.8307 114.56 65.1556C114.703 64.4738 114.774 63.6097 114.774 62.5632V60.4873H117.816V66.8164H118.609V69.0746H117.891V67.5556H114.084V69.0746H113.365V66.8164ZM117.032 61.2265H115.539V62.624C115.539 63.6974 115.471 64.5717 115.334 65.2468C115.203 65.9219 115.032 66.4451 114.821 66.8164H117.032V61.2265Z"
      fill="white"
    />
    <path
      d="M110.439 67.6776C110.041 67.6776 109.699 67.5966 109.412 67.4345C109.126 67.2658 108.89 67.0261 108.703 66.7155C108.517 66.405 108.38 66.0236 108.293 65.5712C108.206 65.1189 108.162 64.6025 108.162 64.0219C108.162 63.4481 108.206 62.935 108.293 62.4827C108.38 62.0236 108.517 61.6388 108.703 61.3282C108.89 61.0177 109.126 60.7814 109.412 60.6194C109.699 60.4506 110.041 60.3662 110.439 60.3662C110.837 60.3662 111.179 60.4506 111.465 60.6194C111.751 60.7814 111.988 61.0177 112.174 61.3282C112.361 61.6388 112.498 62.0236 112.585 62.4827C112.672 62.935 112.716 63.4481 112.716 64.0219C112.716 64.6025 112.672 65.1189 112.585 65.5712C112.498 66.0236 112.361 66.405 112.174 66.7155C111.988 67.0261 111.751 67.2658 111.465 67.4345C111.179 67.5966 110.837 67.6776 110.439 67.6776ZM110.439 66.9383C110.7 66.9383 110.921 66.8843 111.101 66.7763C111.282 66.6615 111.431 66.5029 111.549 66.3004C111.667 66.0978 111.751 65.8548 111.801 65.5712C111.857 65.281 111.885 64.9569 111.885 64.5991V63.4447C111.885 63.0936 111.857 62.773 111.801 62.4827C111.751 62.1924 111.667 61.946 111.549 61.7434C111.431 61.5409 111.282 61.3856 111.101 61.2776C110.921 61.1628 110.7 61.1054 110.439 61.1054C110.178 61.1054 109.957 61.1628 109.776 61.2776C109.596 61.3856 109.447 61.5409 109.328 61.7434C109.21 61.946 109.123 62.1924 109.067 62.4827C109.017 62.773 108.993 63.0936 108.993 63.4447V64.5991C108.993 64.9569 109.017 65.281 109.067 65.5712C109.123 65.8548 109.21 66.0978 109.328 66.3004C109.447 66.5029 109.596 66.6615 109.776 66.7763C109.957 66.8843 110.178 66.9383 110.439 66.9383Z"
      fill="white"
    />
    <path
      d="M102.818 60.4873H106.868V67.5556H106.084V61.2265H103.602V67.5556H102.818V60.4873Z"
      fill="white"
    />
    <path
      d="M94.9233 64.3455H92.3854V67.5556H91.6016V60.4873H92.3854V63.6063H94.9233V60.4873H95.7071V67.5556H94.9233V64.3455Z"
      fill="white"
    />
    <path
      d="M86.0078 60.4873H86.7916V64.0518L86.661 66.0974H86.7076L89.3669 60.4873H90.1134V67.5556H89.3296V63.9911L89.4602 61.9455H89.4136L86.7543 67.5556H86.0078V60.4873Z"
      fill="white"
    />
    <path
      d="M82.2878 67.6776C81.7528 67.6776 81.3018 67.5594 80.9348 67.3231C80.574 67.0869 80.2754 66.7898 80.0391 66.432L80.6082 65.9257C81.0686 66.6075 81.6284 66.9485 82.2878 66.9485C82.717 66.9485 83.0591 66.8371 83.3142 66.6143C83.5692 66.3915 83.6968 66.0742 83.6968 65.6624V65.4497C83.6968 65.1054 83.5879 64.8253 83.3702 64.6092C83.1525 64.3864 82.8134 64.2751 82.3531 64.2751H81.4387V63.5358H82.2971C83.1369 63.5358 83.5568 63.151 83.5568 62.3814V62.1687C83.5568 61.8447 83.451 61.5848 83.2395 61.389C83.0343 61.1932 82.7263 61.0953 82.3158 61.0953C81.955 61.0953 81.6595 61.1662 81.4294 61.308C81.1992 61.4498 81.0095 61.6422 80.8602 61.8852L80.2723 61.47C80.4963 61.1122 80.77 60.8388 81.0934 60.6498C81.4231 60.4607 81.8306 60.3662 82.3158 60.3662C83 60.3662 83.5132 60.535 83.8554 60.8725C84.2037 61.2101 84.3779 61.6624 84.3779 62.2295C84.3779 62.7223 84.2597 63.1038 84.0233 63.3738C83.787 63.6371 83.4915 63.7991 83.1369 63.8599V63.9105C83.3297 63.9375 83.5101 63.9881 83.6781 64.0624C83.846 64.1367 83.9922 64.2413 84.1166 64.3763C84.2411 64.5113 84.3406 64.6801 84.4152 64.8826C84.4899 65.0784 84.5272 65.308 84.5272 65.5712C84.5272 65.8818 84.4743 66.1687 84.3686 66.432C84.269 66.6885 84.1229 66.9113 83.93 67.1004C83.7372 67.2826 83.5008 67.4244 83.2209 67.5257C82.9472 67.6269 82.6361 67.6776 82.2878 67.6776Z"
      fill="white"
    />
    <path
      d="M78.5583 67.5556L78.0077 65.5404H75.7217L75.1712 67.5556H74.3594L76.3562 60.4873H77.3919L79.3887 67.5556H78.5583ZM76.9067 61.3886H76.8227L75.9083 64.8012H77.8211L76.9067 61.3886Z"
      fill="white"
    />
    <path
      d="M69.707 60.4873H73.3554V61.2265H70.4908V67.5556H69.707V60.4873Z"
      fill="white"
    />
    <path
      d="M67.3688 67.5556L66.8183 65.5404H64.5322L63.9817 67.5556H63.1699L65.1667 60.4873H66.2024L68.1992 67.5556H67.3688ZM65.7172 61.3886H65.6333L64.7188 64.8012H66.6317L65.7172 61.3886Z"
      fill="white"
    />
    <path
      d="M61.531 64.0113V61.7734H61.4563L60.0847 65.4088L58.713 61.7734H58.6384V64.0113V67.5556H57.9199V60.4873H58.9277L60.0753 63.6063H60.1313L61.279 60.4873H62.2494V67.5556H61.531V64.0113Z"
      fill="white"
    />
  </svg>
