  <svg
    width="137"
    height="136"
    viewBox="0 0 137 136"
    fill="none"
    xmlns="http://www.w3.org/2000/svg"
  >
    <path
      d="M12.2193 30.8489L62.511 80.7764C63.9988 82.2543 65.986 83.1317 68.088 83.2387C70.1901 83.3458 72.2573 82.6748 73.8896 81.3558L74.5356 80.7764L124.793 30.8827C124.958 31.5014 125.065 32.1314 125.122 32.7783L125.167 33.7627V101.263C125.168 104.101 124.088 106.835 122.144 108.916C120.2 110.997 117.535 112.272 114.684 112.485L113.834 112.513H23.1673C20.3081 112.514 17.5541 111.442 15.4575 109.512C13.361 107.582 12.0768 104.937 11.8623 102.106L11.834 101.263V33.7627C11.834 33.0877 11.8907 32.4352 12.004 31.7939L12.2193 30.8489ZM113.834 22.5127C114.52 22.5127 115.194 22.5689 115.846 22.6871L116.809 22.9064L68.529 70.8314L20.232 22.8952C20.8553 22.7264 21.5013 22.6139 22.1587 22.5577L23.1673 22.5127H113.834Z"
      fill="#2C4EA5"
    />
  </svg>
