  <svg
    width="55"
    height="36"
    viewBox="0 0 55 36"
    fill="none"
    xmlns="http://www.w3.org/2000/svg"
  >
    <rect width="55" height="35" transform="translate(0 0.5)" fill="#2C4EA5" />
    <path
      d="M11.1953 13.125H12.3203L18 21.1484L17.9141 20.0234V13.125H19.4609V24H18.3438L13.6016 17.3359L12.6562 15.9766L12.7422 17.3359V24H11.1953V13.125ZM21.875 13.125H28.8984V14.4844H23.4375V17.6875H27.5703V19H23.4375V22.625H28.8984V24H21.875V13.125ZM30.0312 13.125H31.6562L33.7578 20.7969L34.0625 22.1484L34.4062 20.7969L36.6094 13.125H38.1094L40.2891 20.7969L40.6406 22.2031L40.9766 20.7969L43.0938 13.125H44.6562L41.3594 24H39.8594L37.5703 16.3438L37.3125 15.3672L37.0625 16.3438L34.7969 24H33.2969L30.0312 13.125Z"
      fill="white"
    />
  </svg>
