<svg
							width="120"
							height="120"
							viewBox="0 0 120 120"
							fill="none"
							xmlns="http://www.w3.org/2000/svg"
						>
							<g clipPath="url(#clip0_385_3184)">
								<path
									d="M96 96C89.34 96 84 101.34 84 108C84 111.183 85.2643 114.235 87.5147 116.485C89.7652 118.736 92.8174 120 96 120C99.1826 120 102.235 118.736 104.485 116.485C106.736 114.235 108 111.183 108 108C108 104.817 106.736 101.765 104.485 99.5147C102.235 97.2643 99.1826 96 96 96ZM0 0V12H12L33.6 57.54L25.44 72.24C24.54 73.92 24 75.9 24 78C24 81.1826 25.2643 84.2348 27.5147 86.4853C29.7652 88.7357 32.8174 90 36 90H108V78H38.52C38.1222 78 37.7406 77.842 37.4593 77.5607C37.178 77.2794 37.02 76.8978 37.02 76.5C37.02 76.2 37.08 75.96 37.2 75.78L42.6 66H87.3C91.8 66 95.76 63.48 97.8 59.82L119.28 21C119.7 20.04 120 19.02 120 18C120 16.4087 119.368 14.8826 118.243 13.7574C117.117 12.6321 115.591 12 114 12H25.26L19.62 0M36 96C29.34 96 24 101.34 24 108C24 111.183 25.2643 114.235 27.5147 116.485C29.7652 118.736 32.8174 120 36 120C39.1826 120 42.2348 118.736 44.4853 116.485C46.7357 114.235 48 111.183 48 108C48 104.817 46.7357 101.765 44.4853 99.5147C42.2348 97.2643 39.1826 96 36 96Z"
									fill="#2C4EA5"
								/>
							</g>
							<defs>
								<clipPath id="clip0_385_3184">
									<rect width="120" height="120" fill="white" />
								</clipPath>
							</defs>
						</svg>