  <svg
    width="90"
    height="90"
    viewBox="0 0 90 90"
    fill="none"
    xmlns="http://www.w3.org/2000/svg"
  >
    <circle cx="45" cy="45" r="45" fill="#E83E01" />
    <path
      opacity="0.15"
      d="M21.2 67.5625C21.2 68.209 23.7733 68.829 28.3539 69.2861C32.9344 69.7432 39.147 70 45.625 70C52.1029 70 58.3155 69.7432 62.896 69.2861C67.4766 68.829 70.05 68.209 70.05 67.5625C70.05 66.916 67.4766 66.296 62.896 65.8389C58.3155 65.3818 52.1029 65.125 45.625 65.125C39.147 65.125 32.9344 65.3818 28.3539 65.8389C23.7733 66.296 21.2 66.916 21.2 67.5625Z"
      fill="white"
    />
    <path
      d="M39.75 53.3251H18.175V44.3376C18.1781 42.4252 18.6685 40.5452 19.6 38.8751L25.1375 29.0501C25.6601 28.1169 26.422 27.34 27.3449 26.7995C28.2677 26.259 29.3181 25.9744 30.3875 25.9751H39.75V53.3251Z"
      fill="white"
    />
    <path
      d="M30.3875 25.9751C29.3181 25.9744 28.2677 26.259 27.3449 26.7995C26.422 27.34 25.6601 28.1169 25.1375 29.0501L19.6125 38.8751C18.6735 40.5428 18.1785 42.4237 18.175 44.3376V48.4501C18.1773 46.54 18.6724 44.6628 19.6125 43.0001L25.1375 33.1626C25.6627 32.2326 26.4256 31.459 27.3481 30.9208C28.2706 30.3827 29.3196 30.0995 30.3875 30.1001H39.75V25.9751H30.3875Z"
      fill="white"
    />
    <path
      d="M39.75 53.3251H18.175V44.3376C18.1781 42.4252 18.6685 40.5452 19.6 38.8751L25.1375 29.0501C25.6601 28.1169 26.422 27.34 27.3449 26.7995C28.2677 26.259 29.3181 25.9744 30.3875 25.9751H39.75V53.3251Z"
      stroke="white"
      stroke-linecap="round"
      stroke-linejoin="round"
    />
    <path d="M17.075 53.325H72.4875V61.5999H17.075V53.325Z" fill="#E83E01" />
    <path
      d="M17.075 53.325H72.4875V61.5999H17.075V53.325Z"
      stroke="white"
      stroke-linecap="round"
      stroke-linejoin="round"
    />
    <path
      d="M41.375 21.375H70.125C70.556 21.375 70.9693 21.5462 71.274 21.851C71.5788 22.1557 71.75 22.569 71.75 23V53.325H39.75V23C39.75 22.569 39.9212 22.1557 40.226 21.851C40.5307 21.5462 40.944 21.375 41.375 21.375Z"
      fill="#E83E01"
    />
    <path
      d="M41.375 21.375H70.125C70.556 21.375 70.9693 21.5462 71.274 21.851C71.5788 22.1557 71.75 22.569 71.75 23V53.325H39.75V23C39.75 22.569 39.9212 22.1557 40.226 21.851C40.5307 21.5462 40.944 21.375 41.375 21.375Z"
      stroke="white"
      stroke-linecap="round"
      stroke-linejoin="round"
    />
    <path
      d="M23.0625 61.5999C23.0625 62.3747 23.2151 63.142 23.5116 63.8578C23.8081 64.5736 24.2427 65.224 24.7906 65.7719C25.3384 66.3197 25.9888 66.7543 26.7047 67.0508C27.4205 67.3473 28.1877 67.4999 28.9625 67.4999C29.7373 67.4999 30.5045 67.3473 31.2203 67.0508C31.9362 66.7543 32.5866 66.3197 33.1344 65.7719C33.6823 65.224 34.1169 64.5736 34.4134 63.8578C34.7099 63.142 34.8625 62.3747 34.8625 61.5999C34.8625 60.0352 34.2409 58.5345 33.1344 57.428C32.028 56.3216 30.5273 55.7 28.9625 55.7C27.3977 55.7 25.897 56.3216 24.7906 57.428C23.6841 58.5345 23.0625 60.0352 23.0625 61.5999ZM53.4875 61.5999C53.4875 63.1647 54.1091 64.6654 55.2156 65.7719C56.322 66.8783 57.8227 67.4999 59.3875 67.4999C60.9523 67.4999 62.453 66.8783 63.5594 65.7719C64.6659 64.6654 65.2875 63.1647 65.2875 61.5999C65.2875 60.0352 64.6659 58.5345 63.5594 57.428C62.453 56.3216 60.9523 55.7 59.3875 55.7C57.8227 55.7 56.322 56.3216 55.2156 57.428C54.1091 58.5345 53.4875 60.0352 53.4875 61.5999Z"
      fill="white"
    />
    <path
      d="M23.0625 61.5999C23.0625 62.3747 23.2151 63.142 23.5116 63.8578C23.8081 64.5736 24.2427 65.224 24.7906 65.7719C25.3384 66.3197 25.9888 66.7543 26.7047 67.0508C27.4205 67.3473 28.1877 67.4999 28.9625 67.4999C29.7373 67.4999 30.5045 67.3473 31.2203 67.0508C31.9362 66.7543 32.5866 66.3197 33.1344 65.7719C33.6823 65.224 34.1169 64.5736 34.4134 63.8578C34.7099 63.142 34.8625 62.3747 34.8625 61.5999C34.8625 60.0352 34.2409 58.5345 33.1344 57.428C32.028 56.3216 30.5273 55.7 28.9625 55.7C27.3977 55.7 25.897 56.3216 24.7906 57.428C23.6841 58.5345 23.0625 60.0352 23.0625 61.5999ZM53.4875 61.5999C53.4875 63.1647 54.1091 64.6654 55.2156 65.7719C56.322 66.8783 57.8227 67.4999 59.3875 67.4999C60.9523 67.4999 62.453 66.8783 63.5594 65.7719C64.6659 64.6654 65.2875 63.1647 65.2875 61.5999C65.2875 60.0352 64.6659 58.5345 63.5594 57.428C62.453 56.3216 60.9523 55.7 59.3875 55.7C57.8227 55.7 56.322 56.3216 55.2156 57.428C54.1091 58.5345 53.4875 60.0352 53.4875 61.5999Z"
      stroke="white"
      stroke-linecap="round"
      stroke-linejoin="round"
    />
    <path
      d="M18.175 44.9751H39.75V53.3126H18.175V44.9751Z"
      fill="#E83E01"
      stroke="white"
      stroke-linecap="round"
      stroke-linejoin="round"
    />
    <path
      d="M33.2875 30.325H24.4125L19.6 38.875C19.4625 39.125 19.3375 39.3875 19.2125 39.65H30.9C31.1385 39.6482 31.3737 39.5947 31.5895 39.4933C31.8052 39.3919 31.9965 39.2449 32.15 39.0625L34.5375 36.175C34.7816 35.8845 34.9145 35.5168 34.9125 35.1375V31.9625C34.9125 31.5303 34.7417 31.1157 34.4373 30.809C34.1329 30.5022 33.7196 30.3282 33.2875 30.325Z"
      fill="#F48218"
    />
    <path
      d="M33.2875 30.325H29.475L24.475 39.65H30.875C31.1135 39.649 31.349 39.5959 31.5649 39.4944C31.7809 39.393 31.972 39.2455 32.125 39.0625L34.5125 36.175C34.7565 35.8845 34.8894 35.5168 34.8875 35.1375V31.9625C34.8876 31.5346 34.7202 31.1237 34.4212 30.8176C34.1222 30.5116 33.7152 30.3347 33.2875 30.325Z"
      fill="#E83E01"
    />
    <path
      d="M33.2875 30.325H24.4125L19.6 38.875C19.4625 39.125 19.3375 39.3875 19.2125 39.65H30.9C31.1385 39.6482 31.3737 39.5947 31.5895 39.4933C31.8052 39.3919 31.9965 39.2449 32.15 39.0625L34.5375 36.175C34.7816 35.8845 34.9145 35.5168 34.9125 35.1375V31.9625C34.9125 31.5303 34.7417 31.1157 34.4373 30.809C34.1329 30.5022 33.7196 30.3282 33.2875 30.325Z"
      stroke="white"
      stroke-linecap="round"
      stroke-linejoin="round"
    />
    <path
      d="M21.025 46.4249C21.025 46.1267 20.966 45.8315 20.8516 45.5562C20.7371 45.2809 20.5693 45.0309 20.3579 44.8206C20.1465 44.6104 19.8956 44.444 19.6196 44.331C19.3437 44.218 19.0481 44.1607 18.75 44.1624H17.4125V48.7499H18.75C19.0535 48.7517 19.3542 48.6924 19.6343 48.5755C19.9145 48.4587 20.1682 48.2867 20.3805 48.0698C20.5927 47.8528 20.7592 47.5954 20.8699 47.3128C20.9806 47.0303 21.0334 46.7283 21.025 46.4249Z"
      fill="#F48218"
      stroke="white"
      stroke-linecap="round"
      stroke-linejoin="round"
    />
    <path
      d="M39.75 29.2124H71.7M39.75 37.3499H71.7M39.75 45.6874H71.7"
      stroke="white"
      stroke-linecap="round"
      stroke-linejoin="round"
    />
    <path
      d="M27.025 61.6001C27.025 61.8545 27.0751 62.1065 27.1725 62.3415C27.2699 62.5766 27.4126 62.7902 27.5925 62.9701C27.7724 63.15 27.986 63.2927 28.2211 63.3901C28.4561 63.4875 28.7081 63.5376 28.9625 63.5376C29.217 63.5376 29.4689 63.4875 29.704 63.3901C29.939 63.2927 30.1526 63.15 30.3325 62.9701C30.5125 62.7902 30.6552 62.5766 30.7525 62.3415C30.8499 62.1065 30.9 61.8545 30.9 61.6001C30.9 61.3457 30.8499 61.0937 30.7525 60.8586C30.6552 60.6236 30.5125 60.41 30.3325 60.2301C30.1526 60.0502 29.939 59.9075 29.704 59.8101C29.4689 59.7127 29.217 59.6626 28.9625 59.6626C28.7081 59.6626 28.4561 59.7127 28.2211 59.8101C27.986 59.9075 27.7724 60.0502 27.5925 60.2301C27.4126 60.41 27.2699 60.6236 27.1725 60.8586C27.0751 61.0937 27.025 61.3457 27.025 61.6001ZM57.45 61.6001C57.45 62.114 57.6542 62.6068 58.0175 62.9701C58.3809 63.3335 58.8737 63.5376 59.3875 63.5376C59.9014 63.5376 60.3942 63.3335 60.7575 62.9701C61.1209 62.6068 61.325 62.114 61.325 61.6001C61.325 61.0862 61.1209 60.5934 60.7575 60.2301C60.3942 59.8667 59.9014 59.6626 59.3875 59.6626C58.8737 59.6626 58.3809 59.8667 58.0175 60.2301C57.6542 60.5934 57.45 61.0862 57.45 61.6001Z"
      fill="#F48218"
      stroke="white"
      stroke-linecap="round"
      stroke-linejoin="round"
    />
  </svg>
