  <svg
    width="150"
    height="129"
    viewBox="0 0 150 129"
    fill="none"
    xmlns="http://www.w3.org/2000/svg"
  >
    <path
      d="M119.797 102.58C111.509 102.58 104.864 108.256 104.864 115.335C104.864 118.718 106.437 121.963 109.238 124.355C112.038 126.747 115.836 128.091 119.797 128.091C123.757 128.091 127.555 126.747 130.356 124.355C133.156 121.963 134.729 118.718 134.729 115.335C134.729 111.952 133.156 108.708 130.356 106.316C127.555 103.924 123.757 102.58 119.797 102.58ZM0.335938 0.53418V13.2899H15.2685L42.1472 61.6977L31.993 77.3234C30.8731 79.1092 30.2011 81.2139 30.2011 83.4462C30.2011 86.8292 31.7744 90.0736 34.5748 92.4658C37.3752 94.858 41.1733 96.2019 45.1337 96.2019H134.729V83.4462H48.2695C47.7745 83.4462 47.2997 83.2782 46.9497 82.9792C46.5996 82.6801 46.403 82.2746 46.403 81.8517C46.403 81.5328 46.4776 81.2777 46.6269 81.0864L53.3466 70.6905H108.97C114.57 70.6905 119.498 68.0118 122.036 64.1213L148.766 22.8566C149.288 21.8362 149.662 20.7519 149.662 19.6677C149.662 17.9762 148.875 16.354 147.475 15.1579C146.075 13.9618 144.176 13.2899 142.195 13.2899H31.769L24.7507 0.53418M45.1337 102.58C36.8461 102.58 30.2011 108.256 30.2011 115.335C30.2011 118.718 31.7744 121.963 34.5748 124.355C37.3752 126.747 41.1733 128.091 45.1337 128.091C49.0941 128.091 52.8922 126.747 55.6926 124.355C58.493 121.963 60.0663 118.718 60.0663 115.335C60.0663 111.952 58.493 108.708 55.6926 106.316C52.8922 103.924 49.0941 102.58 45.1337 102.58Z"
      fill="#2C4EA5"
    />
  </svg>
