  <svg
    width="136"
    height="136"
    viewBox="0 0 136 136"
    fill="none"
    xmlns="http://www.w3.org/2000/svg"
  >
    <path
      d="M88.1555 81.0463L85.5772 83.5944C85.5772 83.5944 79.4402 89.6469 62.6952 73.1207C45.9502 56.5945 52.0872 50.5419 52.0872 50.5419L53.7078 48.9332C57.7142 44.9845 58.0938 38.6395 54.5975 34.0045L47.4575 24.5376C43.1282 18.8001 34.7699 18.0407 29.8115 22.9345L20.9149 31.7095C18.4612 34.1395 16.8179 37.2782 17.0162 40.7657C17.5262 49.6926 21.5948 68.8907 44.2842 91.2894C68.3505 115.038 90.9322 115.983 100.163 115.128C103.087 114.858 105.626 113.384 107.672 111.359L115.718 103.417C121.158 98.0563 119.628 88.8594 112.67 85.1076L101.846 79.2632C97.2788 76.8051 91.7255 77.5251 88.1555 81.0463Z"
      fill="#2C4EA5"
    />
  </svg>
