  <svg
    width="226"
    height="186"
    viewBox="0 0 226 186"
    fill="none"
    xmlns="http://www.w3.org/2000/svg"
  >
    <path
      d="M139.296 87.1582C138.233 86.1592 137.134 85.1283 136.692 84.1685C136.283 83.2775 136.261 81.9595 136.236 80.5653C136.198 78.2629 136.155 75.6562 134.213 73.9085C132.271 72.1609 129.364 72.1216 126.816 72.0873C125.267 72.0652 123.816 72.0455 122.813 71.6774C121.746 71.2797 120.601 70.2905 119.491 69.3333C117.68 67.7722 115.629 66 113 66C110.371 66 108.32 67.7722 106.509 69.3333C105.399 70.2905 104.254 71.2797 103.187 71.6774C102.197 72.0455 100.733 72.0652 99.1836 72.0873C96.6255 72.1216 93.7291 72.1609 91.7873 73.9085C89.8455 75.6562 89.8018 78.2727 89.7636 80.5653C89.7391 81.9595 89.7173 83.2653 89.3082 84.1685C88.8664 85.1283 87.7673 86.1592 86.7036 87.1582C84.9691 88.788 83 90.6338 83 93C83 95.3662 84.9691 97.212 86.7036 98.8418C87.7673 99.8408 88.8664 100.872 89.3082 101.831C89.7173 102.722 89.7391 104.041 89.7636 105.435C89.8018 107.737 89.8455 110.344 91.7873 112.091C93.7291 113.839 96.6364 113.878 99.1836 113.913C100.733 113.935 102.184 113.954 103.187 114.323C104.254 114.72 105.399 115.709 106.509 116.667C108.32 118.228 110.371 120 113 120C115.629 120 117.68 118.228 119.491 116.667C120.601 115.709 121.746 114.72 122.813 114.323C123.803 113.954 125.267 113.935 126.816 113.913C129.375 113.878 132.271 113.839 134.213 112.091C136.155 110.344 136.198 107.737 136.236 105.435C136.261 104.041 136.283 102.735 136.692 101.831C137.134 100.872 138.233 99.8408 139.296 98.8418C141.031 97.212 143 95.3662 143 93C143 90.6338 141.031 88.788 139.296 87.1582ZM136.935 96.8045C135.661 97.9975 134.344 99.2345 133.662 100.707C133.013 102.116 132.985 103.78 132.958 105.391C132.928 107.217 132.895 109.107 131.895 110.01C130.894 110.913 128.791 110.94 126.762 110.967C124.973 110.992 123.124 111.016 121.558 111.601C119.922 112.209 118.558 113.395 117.219 114.546C115.787 115.773 114.306 117.059 112.995 117.059C111.683 117.059 110.202 115.781 108.767 114.546C107.442 113.4 106.067 112.214 104.431 111.601C102.865 111.016 101.016 110.992 99.2273 110.967C97.1982 110.94 95.0982 110.911 94.0945 110.01C93.0909 109.109 93.0609 107.217 93.0309 105.391C93.0036 103.78 92.9764 102.116 92.3273 100.707C91.6509 99.2345 90.3336 98.0073 89.0545 96.8021C87.6936 95.5135 86.2727 94.1806 86.2727 93C86.2727 91.8194 87.6936 90.4865 89.0655 89.1955C90.3391 88.0025 91.6564 86.7655 92.3382 85.2927C92.9873 83.8838 93.0145 82.2196 93.0418 80.6095C93.0718 78.7833 93.1045 76.8933 94.1055 75.99C95.1064 75.0867 97.2091 75.0597 99.2382 75.0327C101.027 75.0082 102.876 74.9836 104.442 74.3995C106.078 73.7907 107.442 72.6052 108.781 71.454C110.207 70.2243 111.688 68.9455 113 68.9455C114.312 68.9455 115.793 70.2243 117.227 71.4589C118.553 72.6052 119.927 73.7907 121.564 74.4044C123.129 74.9885 124.978 75.0131 126.767 75.0376C128.796 75.0646 130.896 75.0941 131.9 75.9949C132.904 76.8957 132.934 78.7882 132.964 80.6144C132.991 82.2245 133.018 83.8887 133.667 85.2976C134.344 86.7704 135.661 87.9976 136.94 89.2028C138.304 90.4915 139.733 91.8243 139.733 93.0049C139.733 94.1855 138.306 95.5135 136.935 96.8045ZM115.727 105.764C115.727 106.249 115.567 106.724 115.268 107.127C114.968 107.531 114.542 107.846 114.044 108.031C113.545 108.217 112.997 108.266 112.468 108.171C111.939 108.076 111.453 107.843 111.072 107.499C110.69 107.156 110.43 106.719 110.325 106.242C110.22 105.766 110.274 105.273 110.48 104.824C110.687 104.376 111.036 103.992 111.485 103.723C111.933 103.453 112.461 103.309 113 103.309C113.723 103.309 114.417 103.568 114.928 104.028C115.44 104.488 115.727 105.113 115.727 105.764ZM123.364 88.0909C123.364 92.244 119.575 95.7 114.636 96.3333V96.9273C114.636 97.3179 114.464 97.6925 114.157 97.9686C113.85 98.2448 113.434 98.4 113 98.4C112.566 98.4 112.15 98.2448 111.843 97.9686C111.536 97.6925 111.364 97.3179 111.364 96.9273V94.9636C111.364 94.573 111.536 94.1985 111.843 93.9223C112.15 93.6461 112.566 93.4909 113 93.4909C116.911 93.4909 120.091 91.0683 120.091 88.0909C120.091 85.1135 116.911 82.6909 113 82.6909C109.089 82.6909 105.909 85.1135 105.909 88.0909V89.0727C105.909 89.4633 105.737 89.8379 105.43 90.1141C105.123 90.3903 104.707 90.5455 104.273 90.5455C103.839 90.5455 103.423 90.3903 103.116 90.1141C102.809 89.8379 102.636 89.4633 102.636 89.0727V88.0909C102.636 83.4886 107.273 79.7455 113 79.7455C118.727 79.7455 123.364 83.4886 123.364 88.0909Z"
      fill="black"
    />
    <path
      d="M190.229 96.4264C190.311 95.4217 190.723 94.5793 191.464 93.8991C192.241 93.2209 193.169 92.9114 194.248 92.9706C195.326 93.0298 196.178 93.4369 196.802 94.192C197.427 94.9471 197.698 95.8269 197.616 96.8316C197.537 97.8004 197.128 98.6069 196.39 99.2512C195.648 99.9314 194.739 100.242 193.66 100.183C192.582 100.124 191.712 99.7154 191.052 98.9584C190.424 98.2392 190.15 97.3952 190.229 96.4264Z"
      fill="black"
    />
    <path
      d="M184.909 118.674C185.398 117.801 185.988 117.003 186.679 116.28C187.377 115.579 188.122 115.017 188.912 114.595L190.158 116.105C189.498 116.465 188.866 116.946 188.262 117.546C187.674 118.154 187.175 118.822 186.768 119.549C186.394 120.218 186.153 120.837 186.045 121.405C185.929 121.987 185.936 122.486 186.067 122.899C186.213 123.321 186.476 123.636 186.856 123.845C187.397 124.141 187.948 124.129 188.509 123.809C189.07 123.49 189.591 122.901 190.071 122.043L191.244 119.949L192.756 120.777L191.657 122.74C191.372 123.249 191.182 123.725 191.088 124.167C190.993 124.609 191.005 124.996 191.125 125.328C191.252 125.682 191.476 125.947 191.797 126.124C192.148 126.316 192.517 126.356 192.904 126.245C193.291 126.134 193.676 125.889 194.06 125.51C194.436 125.146 194.791 124.666 195.125 124.07C195.436 123.48 195.689 122.84 195.885 122.149C196.073 121.473 196.188 120.738 196.231 119.944L198.193 120.278C198.139 121.16 198.012 121.984 197.813 122.749C197.62 123.536 197.344 124.269 196.984 124.946C196.451 125.965 195.833 126.795 195.131 127.436C194.442 128.086 193.731 128.503 192.996 128.69C192.253 128.891 191.553 128.812 190.895 128.451C190.34 128.147 189.94 127.7 189.697 127.111C189.469 126.53 189.393 125.88 189.47 125.162C189.548 124.445 189.798 123.708 190.221 122.951L190.677 123.315C189.952 124.609 189.126 125.487 188.199 125.949C187.273 126.41 186.371 126.4 185.494 125.92C184.792 125.536 184.301 124.963 184.021 124.201C183.755 123.447 183.693 122.587 183.833 121.619C183.981 120.673 184.339 119.692 184.909 118.674Z"
      fill="black"
    />
    <path
      d="M175.374 134.061L177.479 135.907L177.958 136.16L181.548 139.307C182.313 139.978 183.102 140.271 183.916 140.186C184.731 140.126 185.534 139.654 186.323 138.773C186.846 138.19 187.258 137.531 187.558 136.797C187.87 136.073 188.036 135.376 188.055 134.706L190.076 135.148C190.033 136.019 189.802 136.902 189.381 137.796C188.961 138.714 188.401 139.564 187.7 140.346C186.488 141.699 185.221 142.45 183.901 142.6C182.581 142.75 181.237 142.227 179.871 141.029L173.856 135.755L175.374 134.061ZM178.164 130.722C178.82 129.99 179.524 129.454 180.275 129.116C181.015 128.789 181.738 128.669 182.444 128.756C183.162 128.854 183.803 129.15 184.367 129.644C184.906 130.117 185.283 130.669 185.499 131.302C185.704 131.947 185.683 132.671 185.434 133.472C185.175 134.286 184.606 135.184 183.727 136.164L180.924 139.292L179.627 138.155L182.363 135.102C183.164 134.208 183.553 133.474 183.53 132.9C183.507 132.326 183.283 131.852 182.857 131.479C182.368 131.05 181.801 130.897 181.155 131.018C180.522 131.15 179.9 131.557 179.288 132.24C178.688 132.91 178.315 133.625 178.171 134.386C178.016 135.158 178.126 135.909 178.503 136.638L176.945 135.904C176.567 135.151 176.47 134.324 176.653 133.42C176.848 132.528 177.352 131.628 178.164 130.722Z"
      fill="black"
    />
    <path
      d="M164.509 146.262L170.328 154.425L175.045 151.135L173.667 148.987C173.21 148.29 172.789 147.598 172.403 146.913C172.012 146.25 171.697 145.607 171.456 144.982C171.202 144.367 171.077 143.804 171.081 143.293C171.085 142.782 171.263 142.343 171.615 141.976L173.81 140.963C173.377 141.245 173.132 141.619 173.075 142.085C173.028 142.565 173.12 143.11 173.351 143.721C173.568 144.342 173.875 145.002 174.271 145.701C174.677 146.414 175.111 147.137 175.573 147.871L178.007 151.63L169.579 157.508L162.54 147.635L164.509 146.262ZM171.237 136.449L174.241 140.663L161.445 149.587L158.441 145.373L160.287 144.086L162.072 146.59L171.156 140.254L169.371 137.75L171.237 136.449Z"
      fill="black"
    />
    <path
      d="M150.406 153.703L151.549 156.259L151.878 156.689L153.827 161.048C154.242 161.976 154.837 162.57 155.611 162.832C156.377 163.116 157.302 163.02 158.386 162.546C159.103 162.232 159.751 161.803 160.33 161.259C160.915 160.73 161.355 160.164 161.652 159.561L163.303 160.804C162.901 161.58 162.323 162.287 161.569 162.927C160.805 163.588 159.943 164.129 158.981 164.55C157.317 165.278 155.854 165.436 154.592 165.024C153.331 164.612 152.329 163.577 151.587 161.918L148.322 154.615L150.406 153.703ZM154.33 151.823C155.231 151.429 156.093 151.233 156.916 151.237C157.724 151.247 158.43 151.439 159.035 151.811C159.646 152.198 160.105 152.734 160.411 153.419C160.704 154.073 160.816 154.733 160.749 155.399C160.667 156.072 160.346 156.722 159.786 157.349C159.211 157.982 158.321 158.563 157.115 159.091L153.267 160.774L152.562 159.2L156.319 157.556C157.418 157.075 158.077 156.569 158.295 156.036C158.514 155.504 158.507 154.979 158.276 154.462C158.011 153.869 157.56 153.493 156.923 153.335C156.293 153.192 155.558 153.305 154.719 153.672C153.894 154.033 153.258 154.529 152.811 155.162C152.348 155.801 152.136 156.53 152.174 157.35L151.065 156.035C151.035 155.193 151.292 154.398 151.834 153.652C152.383 152.92 153.215 152.31 154.33 151.823Z"
      fill="black"
    />
    <path
      d="M141.786 157.531L144.783 168.918L144.043 168.463L149.321 167.104L149.855 169.135L138.137 172.152L137.603 170.121L142.857 168.769L142.459 169.516L139.462 158.129L141.786 157.531Z"
      fill="black"
    />
    <path
      d="M126.489 169.934C124.809 170.041 123.501 169.753 122.563 169.07C121.626 168.387 121.106 167.365 121.003 166.002C120.895 164.573 121.294 163.432 122.199 162.58C123.105 161.744 124.44 161.269 126.203 161.156L131.94 160.758L132.936 173.97L130.543 174.147L130.206 169.685L126.489 169.934ZM126.54 162.961C125.458 163.024 124.66 163.3 124.146 163.79C123.614 164.28 123.382 164.966 123.448 165.846C123.514 166.711 123.835 167.322 124.414 167.68C124.993 168.039 125.831 168.186 126.929 168.121L130.075 167.939L129.683 162.754L126.54 162.961Z"
      fill="black"
    />
    <path
      d="M110.526 162.62L107.889 175.605L101.857 174.407C100.336 174.105 99.2028 173.573 98.4558 172.813C97.6892 172.066 97.4137 171.162 97.6293 170.1C97.845 169.039 98.4293 168.297 99.3825 167.874C100.316 167.465 101.461 167.395 102.818 167.665L102.321 168.229C100.768 167.92 99.6733 167.405 99.0374 166.684C98.4016 165.963 98.1964 165.047 98.422 163.937C98.6509 162.81 99.2551 162.012 100.235 161.544C101.194 161.089 102.541 161.034 104.273 161.378L110.526 162.62ZM107.853 163.975L104.077 163.225C103.096 163.03 102.33 163.031 101.78 163.227C101.227 163.44 100.882 163.882 100.746 164.551C100.607 165.237 100.734 165.781 101.129 166.182C101.504 166.597 102.174 166.9 103.138 167.091L107.062 167.871L107.853 163.975ZM106.718 169.561L103.187 168.86C102.288 168.681 101.577 168.71 101.053 168.945C100.509 169.194 100.176 169.621 100.053 170.225C99.9269 170.846 100.069 171.358 100.48 171.763C100.875 172.164 101.522 172.454 102.421 172.633L105.952 173.334L106.718 169.561Z"
      fill="black"
    />
    <path
      d="M89.777 158.16C91.0077 158.673 91.9855 159.396 92.7106 160.331C93.4357 161.265 93.8759 162.315 94.0312 163.481C94.1799 164.663 93.9994 165.852 93.4898 167.048C92.9737 168.259 92.2394 169.217 91.2871 169.921C90.3347 170.626 89.2706 171.04 88.0947 171.163C86.9123 171.302 85.7057 171.115 84.475 170.602C83.2597 170.096 82.2895 169.375 81.5644 168.441C80.8174 167.516 80.374 166.473 80.2341 165.313C80.0723 164.162 80.2528 162.974 80.7754 161.747C81.2916 160.536 82.0258 159.578 82.9782 158.874C83.9152 158.163 84.9826 157.741 86.1804 157.608C87.3628 157.469 88.5617 157.653 89.777 158.16ZM88.9538 160.092C88.1692 159.765 87.3941 159.649 86.6285 159.745C85.8475 159.835 85.1429 160.128 84.5147 160.625C83.8799 161.136 83.3796 161.822 83.0137 162.68C82.6413 163.554 82.4981 164.379 82.584 165.155C82.6634 165.947 82.9434 166.65 83.4238 167.266C83.8889 167.875 84.5137 168.343 85.2982 168.67C86.0828 168.997 86.8579 169.113 87.6235 169.017C88.3891 168.921 89.0937 168.628 89.7373 168.137C90.3744 167.663 90.8791 166.988 91.2515 166.114C91.6174 165.256 91.7562 164.42 91.668 163.607C91.5732 162.809 91.2932 162.105 90.8282 161.496C90.3631 160.887 89.7383 160.419 88.9538 160.092Z"
      fill="black"
    />
    <path
      d="M79.5609 155.261L71.8308 166.023L61.7878 158.965L69.5179 148.203L71.4815 149.583L64.6265 159.127L64.5061 158.309L71.5628 163.268L70.7423 163.425L77.5973 153.881L79.5609 155.261Z"
      fill="black"
    />
    <path
      d="M60.2337 141.001C60.9587 141.828 61.4334 142.749 61.6579 143.764C61.8588 144.778 61.7609 145.816 61.3642 146.881C60.9565 147.933 60.1832 148.947 59.0444 149.923C57.9056 150.9 56.7864 151.519 55.6867 151.781C54.576 152.031 53.5343 151.98 52.5615 151.629C51.5778 151.265 50.7125 150.656 49.9655 149.804C49.1088 148.826 48.566 147.777 48.3372 146.656C48.1083 145.535 48.1876 144.424 48.575 143.324C48.9498 142.234 49.6496 141.25 50.6745 140.372C51.6995 139.493 52.7901 138.942 53.9464 138.719C55.1027 138.496 56.2254 138.576 57.3147 138.96C58.404 139.343 59.377 140.023 60.2337 141.001ZM68.4318 143.226L54.6902 155.006L53.1744 153.276L55.8886 150.949L58.322 149.061L60.4918 146.871L66.8501 141.421L68.4318 143.226ZM58.7712 142.518C58.211 141.879 57.5657 141.433 56.8354 141.182C56.094 140.917 55.3313 140.869 54.5472 141.036C53.7395 141.201 52.9813 141.588 52.2727 142.195C51.5515 142.814 51.0633 143.496 50.8081 144.241C50.5293 144.985 50.4696 145.739 50.6289 146.502C50.7772 147.253 51.1315 147.948 51.6917 148.588C52.2409 149.214 52.8862 149.66 53.6275 149.924C54.3579 150.176 55.1207 150.225 55.9157 150.07C56.6871 149.914 57.4335 149.526 58.1547 148.908C58.8633 148.3 59.3633 147.619 59.6548 146.865C59.9226 146.108 59.9823 145.354 59.834 144.604C59.6747 143.84 59.3204 143.145 58.7712 142.518Z"
      fill="black"
    />
    <path
      d="M49.7983 128.751C50.4175 129.932 50.7075 131.113 50.6684 132.295C50.6293 133.476 50.2967 134.564 49.6708 135.56C49.0301 136.563 48.1313 137.361 46.9747 137.955C45.8032 138.556 44.6258 138.822 43.4426 138.755C42.2594 138.688 41.1758 138.326 40.1917 137.669C39.1928 137.021 38.3837 136.106 37.7645 134.925C37.153 133.759 36.8669 132.585 36.906 131.404C36.9225 130.215 37.2477 129.13 37.8813 128.15C38.4924 127.162 39.3911 126.364 40.5774 125.755C41.7489 125.154 42.9263 124.887 44.1095 124.955C45.285 125.007 46.376 125.365 47.3827 126.029C48.3816 126.678 49.1868 127.585 49.7983 128.751ZM47.9298 129.71C47.5351 128.957 47.0123 128.373 46.3617 127.957C45.7033 127.527 44.9736 127.302 44.1728 127.282C43.3571 127.27 42.5341 127.477 41.7036 127.903C40.8584 128.336 40.2208 128.879 39.7908 129.53C39.346 130.189 39.1118 130.909 39.088 131.689C39.0566 132.454 39.2382 133.214 39.633 133.966C40.0277 134.719 40.5504 135.303 41.2011 135.719C41.8518 136.134 42.5814 136.359 43.39 136.394C44.1837 136.436 45.0032 136.241 45.8485 135.807C46.6789 135.381 47.3201 134.827 47.772 134.146C48.209 133.472 48.4433 132.752 48.4747 131.987C48.5062 131.222 48.3245 130.463 47.9298 129.71Z"
      fill="black"
    />
    <path
      d="M42.6706 114.336C43.0134 115.642 43.0377 116.883 42.7435 118.06C42.4451 119.221 41.8797 120.217 41.0473 121.051C40.2149 121.884 39.1611 122.464 37.8858 122.792C36.6105 123.119 35.4043 123.119 34.2673 122.792C33.1302 122.464 32.154 121.863 31.3385 120.989C30.5027 120.102 29.9135 119.006 29.5707 117.7C29.266 116.539 29.2293 115.448 29.4605 114.425C29.6713 113.39 30.1631 112.506 30.9359 111.774L32.5373 113.247C32.0178 113.828 31.6931 114.462 31.5634 115.149C31.4132 115.825 31.4291 116.509 31.6111 117.202C31.8311 118.04 32.2135 118.742 32.7583 119.308C33.303 119.873 33.9652 120.262 34.7448 120.475C35.5082 120.692 36.35 120.683 37.2701 120.446C38.1902 120.21 38.9385 119.811 39.515 119.25C40.0914 118.689 40.4786 118.031 40.6763 117.274C40.8741 116.518 40.863 115.721 40.643 114.882C40.461 114.189 40.1465 113.582 39.6994 113.06C39.2318 112.526 38.6283 112.13 37.8887 111.873L38.5392 109.822C39.5583 110.094 40.4305 110.627 41.156 111.421C41.8611 112.204 42.366 113.175 42.6706 114.336Z"
      fill="black"
    />
    <path
      d="M36.4691 92.2614C36.445 93.2691 36.0824 94.1291 35.3812 94.8416C34.644 95.5536 33.7355 95.9038 32.6555 95.8921C31.5756 95.8804 30.7022 95.511 30.0355 94.7838C29.3688 94.0567 29.0475 93.1892 29.0716 92.1815C29.0948 91.2098 29.4566 90.3857 30.1569 89.7093C30.8581 88.9969 31.7487 88.6465 32.8286 88.6582C33.9086 88.6698 34.7999 89.0394 35.5026 89.767C36.1702 90.4582 36.4924 91.2897 36.4691 92.2614Z"
      fill="black"
    />
    <path
      d="M43.102 70.1912C42.6552 71.0858 42.1035 71.9106 41.4469 72.6656C40.7828 73.3984 40.066 73.9942 39.2966 74.4529L37.9809 73.003C38.6233 72.6121 39.2318 72.1025 39.8064 71.4744C40.366 70.8389 40.832 70.1484 41.2043 69.4029C41.5469 68.7171 41.7588 68.0879 41.8398 67.5153C41.9283 66.9279 41.8973 66.4305 41.7469 66.0231C41.5814 65.6083 41.3041 65.3058 40.9147 65.1156C40.3607 64.8448 39.811 64.8823 39.2658 65.228C38.7205 65.5736 38.2282 66.1863 37.7888 67.066L36.7163 69.2131L35.1665 68.4557L36.1719 66.4428C36.4326 65.921 36.5998 65.4369 36.6737 64.9907C36.7475 64.5445 36.7168 64.1585 36.5815 63.8327C36.4386 63.4846 36.2025 63.2301 35.873 63.0691C35.5136 62.8935 35.1434 62.8702 34.7622 62.9993C34.381 63.1284 34.0076 63.3911 33.642 63.7874C33.2838 64.1689 32.952 64.6653 32.6466 65.2766C32.3637 65.8803 32.1407 66.5319 31.9777 67.2313C31.8221 67.9158 31.7414 68.6554 31.7356 69.4502L29.7605 69.2085C29.7736 68.3245 29.8616 67.4956 30.0245 66.722C30.1798 65.9261 30.4213 65.1815 30.749 64.4883C31.2329 63.4449 31.8107 62.5865 32.4824 61.913C33.1392 61.2323 33.83 60.7816 34.5551 60.5608C35.2875 60.3252 35.9907 60.372 36.6645 60.7013C37.2336 60.9794 37.6533 61.4071 37.9238 61.9845C38.1793 62.5545 38.2854 63.2 38.2421 63.9208C38.1987 64.6416 37.9834 65.3896 37.5961 66.165L37.1242 65.823C37.787 64.496 38.5704 63.5804 39.4744 63.0761C40.3783 62.5718 41.2795 62.5392 42.1779 62.9783C42.8967 63.3295 43.4139 63.8791 43.7297 64.6269C44.0304 65.3675 44.1332 66.2246 44.0381 67.1984C43.9354 68.1499 43.6234 69.1475 43.102 70.1912Z"
      fill="black"
    />
    <path
      d="M51.8485 54.3921L49.6632 52.6416L49.1742 52.4101L45.4474 49.4249C44.6539 48.7893 43.8525 48.5317 43.0431 48.6521C42.2313 48.7491 41.4506 49.2555 40.701 50.1711C40.2047 50.7772 39.8231 51.4537 39.5561 52.2008C39.2761 52.9374 39.1415 53.641 39.1524 54.3117L37.1141 53.9601C37.1177 53.0875 37.3099 52.1952 37.6905 51.283C38.0688 50.3475 38.5905 49.4735 39.2557 48.6611C40.4065 47.2554 41.6381 46.4483 42.9505 46.2397C44.2629 46.0311 45.628 46.4947 47.0459 47.6304L53.2897 52.6318L51.8485 54.3921ZM49.2099 57.8516C48.5869 58.6125 47.9078 59.1789 47.1725 59.5508C46.4478 59.9098 45.7311 60.0617 45.0224 60.0065C44.3007 59.9409 43.6472 59.6737 43.0618 59.2048C42.5025 58.7567 42.1008 58.2214 41.8567 57.5988C41.6231 56.9633 41.6126 56.2396 41.8251 55.4276C42.0482 54.6026 42.5768 53.6808 43.4109 52.662L46.0716 49.4123L47.4179 50.4907L44.8205 53.6631C44.0603 54.5916 43.7044 55.3421 43.7526 55.9145C43.8008 56.487 44.0461 56.9504 44.4884 57.3046C44.9957 57.711 45.5691 57.8393 46.2086 57.6896C46.8351 57.5295 47.4387 57.0948 48.0194 56.3856C48.5895 55.6892 48.9297 54.9581 49.0398 54.1922C49.1605 53.4134 49.0167 52.6682 48.6084 51.9568L50.1971 52.6208C50.6079 53.3556 50.742 54.1783 50.5994 55.0891C50.4438 55.9894 49.9806 56.9102 49.2099 57.8516Z"
      fill="black"
    />
    <path
      d="M62.0398 41.7745L55.8754 33.8687L51.3038 37.3562L52.7724 39.443C53.2583 40.1203 53.7089 40.7932 54.1244 41.4615C54.5428 42.1065 54.8856 42.7359 55.1527 43.3495C55.4332 43.9531 55.5822 44.5102 55.5999 45.0207C55.6176 45.5312 55.4584 45.9776 55.1224 46.3597L52.9727 47.465C53.3938 47.1648 53.6226 46.7806 53.6591 46.3126C53.6854 45.8313 53.5701 45.2905 53.3132 44.6899C53.0695 44.0793 52.7349 43.4332 52.3092 42.7518C51.8733 42.0572 51.4088 41.3531 50.9156 40.6393L48.3229 36.989L56.4923 30.757L63.948 40.3189L62.0398 41.7745ZM55.7374 51.8645L52.5553 47.7834L64.9585 38.3218L68.1406 42.4028L66.3516 43.7675L64.4608 41.3425L55.6554 48.0597L57.5462 50.4846L55.7374 51.8645Z"
      fill="black"
    />
    <path
      d="M75.7295 33.7352L74.4789 31.23L74.132 30.8151L71.9992 26.5429C71.5451 25.6333 70.9257 25.0641 70.1409 24.8353C69.3636 24.5844 68.4433 24.7185 67.38 25.2379C66.6762 25.5816 66.0468 26.0374 65.492 26.6051C64.9298 27.158 64.5133 27.7416 64.2426 28.356L62.5401 27.1845C62.9084 26.3925 63.4561 25.6613 64.1832 24.9908C64.9178 24.2982 65.7568 23.7215 66.7003 23.2607C68.3327 22.4634 69.7879 22.2441 71.0661 22.6029C72.3442 22.9617 73.389 23.9537 74.2004 25.5791L77.7737 32.7367L75.7295 33.7352ZM71.8878 35.7784C71.0042 36.21 70.151 36.4412 69.3282 36.4721C68.5204 36.4957 67.8065 36.3344 67.1865 35.988C66.5591 35.6267 66.0779 35.1106 65.7429 34.4395C65.4228 33.7983 65.2822 33.1436 65.3212 32.4754C65.3751 31.7999 65.6684 31.1374 66.201 30.4878C66.7485 29.8308 67.6138 29.2134 68.7969 28.6356L72.5708 26.7924L73.3413 28.3357L69.6572 30.1351C68.579 30.6617 67.942 31.1954 67.7463 31.7362C67.5505 32.2769 67.5792 32.8008 67.8323 33.3078C68.1226 33.8893 68.5893 34.2457 69.2322 34.3768C69.8677 34.493 70.5972 34.35 71.4209 33.9477C72.2296 33.5527 72.8441 33.03 73.2645 32.3795C73.6998 31.7217 73.8811 30.9841 73.8082 30.1665L74.972 31.4343C75.0374 32.2741 74.8148 33.0783 74.3044 33.8469C73.7866 34.6006 72.981 35.2445 71.8878 35.7784Z"
      fill="black"
    />
    <path
      d="M84.4303 29.4164L80.9906 18.155L81.748 18.581L76.5262 20.1414L75.9127 18.133L87.5062 14.6686L88.1196 16.677L82.9217 18.2302L83.2901 17.4679L86.7298 28.7293L84.4303 29.4164Z"
      fill="black"
    />
    <path
      d="M98.9316 16.4496C100.606 16.2776 101.925 16.5148 102.889 17.1609C103.853 17.8071 104.413 18.809 104.569 20.1667C104.733 21.5906 104.379 22.7458 103.508 23.6322C102.636 24.5021 101.32 25.0277 99.5629 25.2089L93.8462 25.8279L92.3302 12.6649L94.7151 12.3962L95.2271 16.8418L98.9316 16.4496ZM99.1554 23.4183C100.234 23.3136 101.021 23.0069 101.516 22.4982C102.027 21.9877 102.232 21.2937 102.131 20.4162C102.032 19.5552 101.687 18.9568 101.094 18.6211C100.502 18.2853 99.6583 18.1707 98.5633 18.2773L95.4274 18.5803L96.0223 23.7462L99.1554 23.4183Z"
      fill="black"
    />
    <path
      d="M115.04 23.0722L117.119 9.98633L123.196 10.9309C124.728 11.169 125.883 11.6521 126.662 12.3804C127.459 13.0947 127.773 13.9869 127.603 15.0568C127.433 16.1267 126.881 16.8926 125.947 17.3547C125.032 17.8028 123.891 17.9206 122.524 17.7081L122.997 17.1238C124.561 17.367 125.677 17.8355 126.343 18.5293C127.009 19.2232 127.253 20.1298 127.075 21.2491C126.895 22.3848 126.325 23.2071 125.367 23.716C124.428 24.2109 123.085 24.3227 121.339 24.0514L115.04 23.0722ZM117.652 21.6061L121.457 22.1974C122.445 22.351 123.21 22.318 123.751 22.0985C124.294 21.8626 124.62 21.4072 124.727 20.7323C124.837 20.041 124.686 19.5031 124.275 19.1187C123.882 18.7204 123.2 18.4457 122.229 18.2947L118.276 17.6803L117.652 21.6061ZM118.547 15.9767L122.104 16.5296C123.01 16.6704 123.72 16.612 124.233 16.3545C124.765 16.0831 125.08 15.6428 125.177 15.0338C125.276 14.4083 125.112 13.9021 124.684 13.5151C124.273 13.1307 123.614 12.8681 122.708 12.7273L119.151 12.1744L118.547 15.9767Z"
      fill="black"
    />
    <path
      d="M136.034 26.6197C134.783 26.1586 133.776 25.4764 133.012 24.5732C132.248 23.6699 131.764 22.6389 131.559 21.48C131.36 20.3055 131.49 19.11 131.949 17.8935C132.413 16.6613 133.105 15.6733 134.027 14.9294C134.948 14.1856 135.994 13.7272 137.163 13.5543C138.338 13.3657 139.551 13.502 140.802 13.9632C142.038 14.4185 143.038 15.0978 143.801 16.0011C144.587 16.8945 145.074 17.9178 145.263 19.0709C145.473 20.2142 145.344 21.4097 144.873 22.6574C144.409 23.8895 143.716 24.8775 142.795 25.6214C141.889 26.3711 140.841 26.8373 139.65 27.02C138.475 27.2085 137.27 27.0751 136.034 26.6197ZM136.775 24.6546C137.572 24.9485 138.351 25.0315 139.112 24.9033C139.888 24.7809 140.58 24.4585 141.186 23.936C141.798 23.3979 142.269 22.6922 142.598 21.8187C142.933 20.9297 143.041 20.0992 142.922 19.3272C142.809 18.5396 142.5 17.8482 141.994 17.2532C141.504 16.6639 140.86 16.2223 140.062 15.9283C139.265 15.6344 138.485 15.5515 137.725 15.6796C136.964 15.8078 136.273 16.1302 135.651 16.6469C135.034 17.1481 134.559 17.8431 134.224 18.7321C133.895 19.6055 133.792 20.4467 133.914 21.2557C134.043 22.0491 134.352 22.7404 134.843 23.3297C135.333 23.919 135.977 24.3606 136.775 24.6546Z"
      fill="black"
    />
    <path
      d="M146.82 29.2398L154.122 18.1836L164.432 24.8456L157.13 35.9017L155.114 34.5992L161.59 24.7947L161.742 25.6074L154.498 20.9264L155.312 20.7378L148.836 30.5424L146.82 29.2398Z"
      fill="black"
    />
    <path
      d="M166.562 42.5625C165.801 41.768 165.286 40.8689 165.017 39.865C164.771 38.8617 164.823 37.8196 165.173 36.7387C165.534 35.6698 166.261 34.6225 167.356 33.5969C168.451 32.5713 169.541 31.9032 170.628 31.5927C171.727 31.2941 172.77 31.2989 173.757 31.607C174.756 31.9272 175.648 32.4966 176.432 33.3151C177.331 34.254 177.919 35.2782 178.198 36.3879C178.476 37.4976 178.446 38.6106 178.107 39.727C177.781 40.832 177.125 41.8461 176.14 42.7691C175.155 43.6921 174.09 44.2906 172.944 44.5644C171.799 44.8382 170.674 44.8077 169.568 44.473C168.463 44.1382 167.461 43.5014 166.562 42.5625ZM158.273 40.7024L171.481 28.3269L173.072 29.988L170.463 32.4324L168.116 34.4265L166.045 36.7095L159.933 42.4357L158.273 40.7024ZM167.956 40.9822C168.544 41.5961 169.208 42.0127 169.949 42.2321C170.702 42.4635 171.466 42.4784 172.242 42.2766C173.041 42.0755 173.782 41.6559 174.463 41.0177C175.156 40.3682 175.614 39.6654 175.836 38.9093C176.081 38.1538 176.108 37.3983 175.915 36.6426C175.733 35.8991 175.349 35.2203 174.761 34.6065C174.184 34.0046 173.52 33.588 172.768 33.3565C172.027 33.1372 171.263 33.1223 170.475 33.3121C169.711 33.5024 168.983 33.9224 168.29 34.5719C167.609 35.2101 167.139 35.9126 166.881 36.6794C166.647 37.4469 166.621 38.2024 166.802 38.946C166.995 39.7016 167.38 40.3804 167.956 40.9822Z"
      fill="black"
    />
    <path
      d="M177.465 54.1858C176.786 53.038 176.437 51.8733 176.416 50.6917C176.395 49.5101 176.672 48.4066 177.247 47.3812C177.836 46.3474 178.694 45.5052 179.819 44.8544C180.959 44.1954 182.122 43.8697 183.307 43.8773C184.493 43.885 185.593 44.1918 186.61 44.7977C187.64 45.3953 188.495 46.268 189.173 47.4159C189.843 48.5494 190.189 49.7069 190.209 50.8885C190.253 52.0761 189.983 53.1754 189.4 54.1865C188.839 55.2036 187.982 56.0458 186.828 56.7132C185.688 57.3723 184.525 57.698 183.34 57.6904C182.163 57.6971 181.055 57.3944 180.016 56.7825C178.985 56.1849 178.135 55.3193 177.465 54.1858ZM179.283 53.1347C179.715 53.8664 180.267 54.4233 180.938 54.8054C181.618 55.2018 182.358 55.3898 183.159 55.3694C183.974 55.3407 184.786 55.0928 185.594 54.6256C186.416 54.15 187.026 53.5763 187.422 52.9042C187.833 52.2238 188.031 51.4935 188.015 50.7134C188.008 49.9476 187.788 49.1988 187.355 48.467C186.923 47.7353 186.371 47.1784 185.7 46.7963C185.029 46.4143 184.289 46.2263 183.479 46.2323C182.684 46.23 181.875 46.4666 181.053 46.9421C180.245 47.4093 179.633 47.9944 179.216 48.6975C178.813 49.3923 178.616 50.1225 178.623 50.8883C178.63 51.6541 178.85 52.4029 179.283 53.1347Z"
      fill="black"
    />
    <path
      d="M185.465 68.5146C185.058 67.2274 184.973 65.9891 185.209 64.7997C185.449 63.6262 185.965 62.6032 186.755 61.7307C187.546 60.8583 188.57 60.2276 189.828 59.8386C191.086 59.4496 192.291 59.391 193.443 59.6628C194.595 59.9345 195.6 60.4873 196.458 61.3211C197.337 62.1658 197.98 63.2318 198.386 64.519C198.748 65.6632 198.839 66.7517 198.658 67.7844C198.499 68.8281 198.051 69.7341 197.315 70.5025L195.642 69.1095C196.133 68.5043 196.426 67.8554 196.522 67.1629C196.638 66.4814 196.589 65.7989 196.373 65.1156C196.111 64.2892 195.695 63.6069 195.123 63.0685C194.55 62.5302 193.87 62.1738 193.08 61.9992C192.307 61.8196 191.466 61.8702 190.559 62.1509C189.651 62.4315 188.923 62.8659 188.375 63.4541C187.827 64.0423 187.473 64.7188 187.312 65.4836C187.152 66.2485 187.203 67.044 187.464 67.8704C187.68 68.5538 188.024 69.1451 188.496 69.6445C188.99 70.1548 189.612 70.5206 190.364 70.7417L189.815 72.8216C188.784 72.5998 187.886 72.1098 187.122 71.3517C186.379 70.6045 185.827 69.6589 185.465 68.5146Z"
      fill="black"
    />
  </svg>
