  <svg
    width="90"
    height="90"
    viewBox="0 0 90 90"
    fill="none"
    xmlns="http://www.w3.org/2000/svg"
  >
    <circle cx="45" cy="45" r="45" fill="#E83E01" />
    <path
      d="M50.0812 23.6851H29.1223C25.1778 24.0138 24.1901 27.7946 23.7791 29.8494L17.6155 57.7946C15.5595 66.8357 18.8477 66.8357 24.6018 66.8357H53.3689C60.6018 67.1645 60.7662 61.2193 59.9443 58.2056L55.0127 29.8494C54.3552 25.2467 51.4511 23.822 50.0812 23.6851Z"
      fill="#E83E01"
      stroke="white"
      stroke-width="5"
    />
    <path
      d="M32.6172 31.0822V19.1721C32.6172 16.3641 35.4117 13.0419 39.0047 13.0419C41.2669 12.7615 45.8712 13.788 46.1906 19.1708C46.5099 24.5536 46.5898 30.4187 46.5898 31.0822"
      stroke="white"
      stroke-width="4"
      stroke-linecap="round"
    />
    <circle cx="60.1501" cy="59.4382" r="16.8493" fill="white" />
    <circle cx="60.1499" cy="59.4385" r="12.7397" fill="#E83E01" />
    <path
      d="M55.6289 65.6027H61.7933C62.8892 65.4657 65.081 64.452 65.081 61.4931C65.081 58.5342 62.8892 57.5205 61.7933 57.3835H56.8618M56.8618 57.3835L60.5604 53.2739M56.8618 57.3835L60.5604 61.4931"
      stroke="white"
      stroke-width="4"
      stroke-linecap="round"
    />
  </svg>
