  <svg
    width="90"
    height="91"
    viewBox="0 0 90 91"
    fill="none"
    xmlns="http://www.w3.org/2000/svg"
  >
    <circle cx="45" cy="45.5" r="45" fill="#E83E01" />
    <path
      opacity="0.15"
      d="M21.1992 68.0625C21.1992 68.709 23.7726 69.329 28.3531 69.7861C32.9337 70.2432 39.1463 70.5 45.6242 70.5C52.1021 70.5 58.3147 70.2432 62.8953 69.7861C67.4759 69.329 70.0492 68.709 70.0492 68.0625C70.0492 67.416 67.4759 66.796 62.8953 66.3389C58.3147 65.8818 52.1021 65.625 45.6242 65.625C39.1463 65.625 32.9337 65.8818 28.3531 66.3389C23.7726 66.796 21.1992 67.416 21.1992 68.0625Z"
      fill="white"
    />
    <path
      d="M39.7508 53.8251H18.1758V44.8376C18.1788 42.9252 18.6692 41.0452 19.6008 39.3751L25.1383 29.5501C25.6608 28.6169 26.4228 27.84 27.3456 27.2995C28.2685 26.759 29.3188 26.4744 30.3883 26.4751H39.7508V53.8251Z"
      fill="white"
    />
    <path
      d="M30.3883 26.4751C29.3188 26.4744 28.2685 26.759 27.3456 27.2995C26.4228 27.84 25.6608 28.6169 25.1383 29.5501L19.6133 39.3751C18.6743 41.0428 18.1793 42.9237 18.1758 44.8376V48.9501C18.178 47.04 18.6732 45.1628 19.6133 43.5001L25.1383 33.6626C25.6634 32.7326 26.4263 31.959 27.3488 31.4208C28.2713 30.8827 29.3203 30.5995 30.3883 30.6001H39.7508V26.4751H30.3883Z"
      fill="white"
    />
    <path
      d="M39.7508 53.8251H18.1758V44.8376C18.1788 42.9252 18.6692 41.0452 19.6008 39.3751L25.1383 29.5501C25.6608 28.6169 26.4228 27.84 27.3456 27.2995C28.2685 26.759 29.3188 26.4744 30.3883 26.4751H39.7508V53.8251Z"
      stroke="white"
      stroke-linecap="round"
      stroke-linejoin="round"
    />
    <path
      d="M17.0742 53.8252H72.4867V62.1002H17.0742V53.8252Z"
      fill="#E83E01"
    />
    <path
      d="M17.0742 53.8252H72.4867V62.1002H17.0742V53.8252Z"
      stroke="white"
      stroke-linecap="round"
      stroke-linejoin="round"
    />
    <path
      d="M41.375 21.875H70.125C70.556 21.875 70.9693 22.0462 71.274 22.351C71.5788 22.6557 71.75 23.069 71.75 23.5V53.825H39.75V23.5C39.75 23.069 39.9212 22.6557 40.226 22.351C40.5307 22.0462 40.944 21.875 41.375 21.875Z"
      fill="#E83E01"
    />
    <path
      d="M41.375 21.875H70.125C70.556 21.875 70.9693 22.0462 71.274 22.351C71.5788 22.6557 71.75 23.069 71.75 23.5V53.825H39.75V23.5C39.75 23.069 39.9212 22.6557 40.226 22.351C40.5307 22.0462 40.944 21.875 41.375 21.875Z"
      stroke="white"
      stroke-linecap="round"
      stroke-linejoin="round"
    />
    <path
      d="M23.0625 62.1002C23.0625 62.875 23.2151 63.6422 23.5116 64.358C23.8081 65.0738 24.2427 65.7243 24.7906 66.2721C25.3384 66.82 25.9888 67.2546 26.7047 67.5511C27.4205 67.8476 28.1877 68.0002 28.9625 68.0002C29.7373 68.0002 30.5045 67.8476 31.2203 67.5511C31.9362 67.2546 32.5866 66.82 33.1344 66.2721C33.6823 65.7243 34.1169 65.0738 34.4134 64.358C34.7099 63.6422 34.8625 62.875 34.8625 62.1002C34.8625 60.5354 34.2409 59.0347 33.1344 57.9283C32.028 56.8218 30.5273 56.2002 28.9625 56.2002C27.3977 56.2002 25.897 56.8218 24.7906 57.9283C23.6841 59.0347 23.0625 60.5354 23.0625 62.1002ZM53.4875 62.1002C53.4875 63.665 54.1091 65.1657 55.2156 66.2721C56.322 67.3786 57.8227 68.0002 59.3875 68.0002C60.9523 68.0002 62.453 67.3786 63.5594 66.2721C64.6659 65.1657 65.2875 63.665 65.2875 62.1002C65.2875 60.5354 64.6659 59.0347 63.5594 57.9283C62.453 56.8218 60.9523 56.2002 59.3875 56.2002C57.8227 56.2002 56.322 56.8218 55.2156 57.9283C54.1091 59.0347 53.4875 60.5354 53.4875 62.1002Z"
      fill="white"
    />
    <path
      d="M23.0625 62.1002C23.0625 62.875 23.2151 63.6422 23.5116 64.358C23.8081 65.0738 24.2427 65.7243 24.7906 66.2721C25.3384 66.82 25.9888 67.2546 26.7047 67.5511C27.4205 67.8476 28.1877 68.0002 28.9625 68.0002C29.7373 68.0002 30.5045 67.8476 31.2203 67.5511C31.9362 67.2546 32.5866 66.82 33.1344 66.2721C33.6823 65.7243 34.1169 65.0738 34.4134 64.358C34.7099 63.6422 34.8625 62.875 34.8625 62.1002C34.8625 60.5354 34.2409 59.0347 33.1344 57.9283C32.028 56.8218 30.5273 56.2002 28.9625 56.2002C27.3977 56.2002 25.897 56.8218 24.7906 57.9283C23.6841 59.0347 23.0625 60.5354 23.0625 62.1002ZM53.4875 62.1002C53.4875 63.665 54.1091 65.1657 55.2156 66.2721C56.322 67.3786 57.8227 68.0002 59.3875 68.0002C60.9523 68.0002 62.453 67.3786 63.5594 66.2721C64.6659 65.1657 65.2875 63.665 65.2875 62.1002C65.2875 60.5354 64.6659 59.0347 63.5594 57.9283C62.453 56.8218 60.9523 56.2002 59.3875 56.2002C57.8227 56.2002 56.322 56.8218 55.2156 57.9283C54.1091 59.0347 53.4875 60.5354 53.4875 62.1002Z"
      stroke="white"
      stroke-linecap="round"
      stroke-linejoin="round"
    />
    <path
      d="M18.1758 45.4751H39.7508V53.8126H18.1758V45.4751Z"
      fill="#E83E01"
      stroke="white"
      stroke-linecap="round"
      stroke-linejoin="round"
    />
    <path
      d="M33.2879 30.8252H24.4129L19.6004 39.3752C19.4629 39.6252 19.3379 39.8877 19.2129 40.1502H30.9004C31.1388 40.1484 31.374 40.095 31.5898 39.9935C31.8056 39.8921 31.9969 39.7451 32.1504 39.5627L34.5379 36.6752C34.7819 36.3848 34.9148 36.017 34.9129 35.6377V32.4627C34.9129 32.0306 34.7421 31.6159 34.4377 31.3092C34.1333 31.0025 33.72 30.8285 33.2879 30.8252Z"
      fill="#F48218"
    />
    <path
      d="M33.2871 30.8252H29.4746L24.4746 40.1502H30.8746C31.1132 40.1492 31.3487 40.0962 31.5646 39.9947C31.7805 39.8932 31.9716 39.7458 32.1246 39.5627L34.5121 36.6752C34.7562 36.3848 34.8891 36.017 34.8871 35.6377V32.4627C34.8872 32.0348 34.7199 31.6239 34.4208 31.3179C34.1218 31.0118 33.7149 30.835 33.2871 30.8252Z"
      fill="#E83E01"
    />
    <path
      d="M33.2879 30.8252H24.4129L19.6004 39.3752C19.4629 39.6252 19.3379 39.8877 19.2129 40.1502H30.9004C31.1388 40.1484 31.374 40.095 31.5898 39.9935C31.8056 39.8921 31.9969 39.7451 32.1504 39.5627L34.5379 36.6752C34.7819 36.3848 34.9148 36.017 34.9129 35.6377V32.4627C34.9129 32.0306 34.7421 31.6159 34.4377 31.3092C34.1333 31.0025 33.72 30.8285 33.2879 30.8252Z"
      stroke="white"
      stroke-linecap="round"
      stroke-linejoin="round"
    />
    <path
      d="M21.0246 46.9251C21.0246 46.627 20.9657 46.3317 20.8512 46.0564C20.7367 45.7811 20.5689 45.5311 20.3575 45.3209C20.1461 45.1106 19.8952 44.9442 19.6193 44.8313C19.3433 44.7183 19.0478 44.661 18.7496 44.6626H17.4121V49.2501H18.7496C19.0531 49.2519 19.3539 49.1926 19.634 49.0758C19.9141 48.959 20.1678 48.7869 20.3801 48.57C20.5924 48.3531 20.7588 48.0957 20.8695 47.8131C20.9803 47.5305 21.033 47.2285 21.0246 46.9251Z"
      fill="#F48218"
      stroke="white"
      stroke-linecap="round"
      stroke-linejoin="round"
    />
    <path
      d="M39.75 29.7124H71.7M39.75 37.8499H71.7M39.75 46.1874H71.7"
      stroke="white"
      stroke-linecap="round"
      stroke-linejoin="round"
    />
    <path
      d="M27.0254 62.1001C27.0254 62.3545 27.0755 62.6065 27.1729 62.8415C27.2702 63.0766 27.413 63.2902 27.5929 63.4701C27.7728 63.65 27.9864 63.7927 28.2214 63.8901C28.4565 63.9875 28.7085 64.0376 28.9629 64.0376C29.2173 64.0376 29.4693 63.9875 29.7043 63.8901C29.9394 63.7927 30.153 63.65 30.3329 63.4701C30.5128 63.2902 30.6555 63.0766 30.7529 62.8415C30.8503 62.6065 30.9004 62.3545 30.9004 62.1001C30.9004 61.8457 30.8503 61.5937 30.7529 61.3586C30.6555 61.1236 30.5128 60.91 30.3329 60.7301C30.153 60.5502 29.9394 60.4075 29.7043 60.3101C29.4693 60.2127 29.2173 60.1626 28.9629 60.1626C28.7085 60.1626 28.4565 60.2127 28.2214 60.3101C27.9864 60.4075 27.7728 60.5502 27.5929 60.7301C27.413 60.91 27.2702 61.1236 27.1729 61.3586C27.0755 61.5937 27.0254 61.8457 27.0254 62.1001ZM57.4504 62.1001C57.4504 62.614 57.6545 63.1068 58.0179 63.4701C58.3812 63.8335 58.874 64.0376 59.3879 64.0376C59.9017 64.0376 60.3946 63.8335 60.7579 63.4701C61.1213 63.1068 61.3254 62.614 61.3254 62.1001C61.3254 61.5862 61.1213 61.0934 60.7579 60.7301C60.3946 60.3667 59.9017 60.1626 59.3879 60.1626C58.874 60.1626 58.3812 60.3667 58.0179 60.7301C57.6545 61.0934 57.4504 61.5862 57.4504 62.1001Z"
      fill="#F48218"
      stroke="white"
      stroke-linecap="round"
      stroke-linejoin="round"
    />
  </svg>
