<svg width="28" height="26" viewBox="0 0 28 26" fill="none" xmlns="http://www.w3.org/2000/svg">
<path d="M3.30918 8.51877C3.05031 8.72335 2.89092 9.00393 2.86274 9.30464H2.86134L1.63398 22.4081C1.60304 22.7383 1.65225 23.0705 1.77853 23.3836C1.90481 23.6967 2.10542 23.9841 2.36773 24.2276C2.63003 24.471 2.94835 24.6653 3.30265 24.7983C3.65695 24.9312 4.03954 24.9999 4.42635 25H23.5736C23.9605 24.9999 24.3431 24.9312 24.6973 24.7983C25.0516 24.6653 25.37 24.471 25.6323 24.2276C25.8946 23.9841 26.0952 23.6967 26.2215 23.3836C26.3477 23.0705 26.397 22.7383 26.366 22.4081L25.1373 9.30464C25.1091 9.00393 24.9497 8.72335 24.6908 8.51877C24.432 8.31419 24.0926 8.20062 23.7404 8.20068H14H4.25962C3.90738 8.20062 3.56804 8.31419 3.30918 8.51877Z" fill="#2C4EA5" stroke="#2C4EA5" stroke-width="1.37814" stroke-linecap="round" stroke-linejoin="round"/>
<path d="M19.6028 11.7996V5.79981C19.6028 4.52682 19.0123 3.30597 17.9613 2.40583C16.9103 1.50569 15.4848 1 13.9984 1C12.512 1 11.0865 1.50569 10.0355 2.40583C8.9845 3.30597 8.39404 4.52682 8.39404 5.79981V11.7996" stroke="#2C4EA5" stroke-width="1.37814" stroke-linecap="round" stroke-linejoin="round"/>
</svg>
