  <svg
    width="51"
    height="50"
    viewBox="0 0 51 50"
    fill="none"
    xmlns="http://www.w3.org/2000/svg"
  >
    <rect x="0.5" width="50" height="50" rx="25" fill="#2C4EA5" />
    <g clip-path="url(#clip0_1334_14209)">
      <path
        d="M14.8092 20.5188C14.5503 20.7234 14.3909 21.0039 14.3627 21.3046H14.3613L13.134 34.4081C13.103 34.7383 13.1523 35.0705 13.2785 35.3836C13.4048 35.6967 13.6054 35.9841 13.8677 36.2276C14.13 36.471 14.4484 36.6653 14.8026 36.7983C15.1569 36.9312 15.5395 36.9999 15.9264 37H35.0736C35.4605 36.9999 35.8431 36.9312 36.1973 36.7983C36.5516 36.6653 36.87 36.471 37.1323 36.2276C37.3946 35.9841 37.5952 35.6967 37.7215 35.3836C37.8477 35.0705 37.897 34.7383 37.866 34.4081L36.6373 21.3046C36.6091 21.0039 36.4497 20.7234 36.1908 20.5188C35.932 20.3142 35.5926 20.2006 35.2404 20.2007H25.5H15.7596C15.4074 20.2006 15.068 20.3142 14.8092 20.5188Z"
        fill="white"
        stroke="white"
        stroke-width="1.37814"
        stroke-linecap="round"
        stroke-linejoin="round"
      />
      <path
        d="M31.1032 23.7996V17.7998C31.1032 16.5268 30.5128 15.306 29.4618 14.4058C28.4107 13.5057 26.9853 13 25.4989 13C24.0125 13 22.587 13.5057 21.536 14.4058C20.485 15.306 19.8945 16.5268 19.8945 17.7998V23.7996"
        stroke="white"
        stroke-width="1.37814"
        stroke-linecap="round"
        stroke-linejoin="round"
      />
    </g>
    <defs>
      <clipPath id="clip0_1334_14209">
        <rect width="33" height="32" fill="white" transform="translate(9 9)" />
      </clipPath>
    </defs>
  </svg>
