  <svg
    width="22"
    height="24"
    viewBox="0 0 22 24"
    fill="none"
    xmlns="http://www.w3.org/2000/svg"
  >
    <path
      d="M9.84531 0V7.69719C8.16226 7.38878 6.42384 7.60005 4.86679 8.30223C3.30973 9.00441 2.00973 10.1634 1.14382 11.6213C0.277912 13.0792 -0.111817 14.7652 0.0277103 16.4496C0.167237 18.1341 0.829238 19.7352 1.92356 21.0348C3.01788 22.3344 4.49133 23.2694 6.14325 23.7125C7.79516 24.1556 9.54525 24.0852 11.1552 23.5108C12.7651 22.9365 14.1566 21.8863 15.1402 20.503C16.1238 19.1198 16.6517 17.4709 16.6519 15.7808V11.2974C17.9586 11.846 19.3647 12.1261 20.7845 12.1206H22V5.40027H20.7845C18.4715 5.40027 16.6519 3.55578 16.6519 1.20006V0H9.84531ZM12.2762 2.40012H14.328C14.8069 5.06426 16.8561 7.19557 19.5691 7.69239V9.63409C18.3074 9.45168 17.1685 8.98366 16.1135 8.28642L14.221 7.03596V15.7808C14.2209 16.9447 13.8673 18.0819 13.206 19.0454C12.5447 20.0089 11.606 20.7545 10.5111 21.1859C9.41625 21.6174 8.21551 21.7148 7.06399 21.4656C5.91247 21.2165 4.86305 20.6322 4.05129 19.7882C3.23952 18.9442 2.70269 17.8793 2.51012 16.731C2.31756 15.5827 2.47811 14.4038 2.97104 13.3466C3.46397 12.2893 4.26663 11.4022 5.27536 10.7999C6.28409 10.1976 7.45255 9.90771 8.62984 9.96771V11.8926C7.83792 11.8323 7.04598 12.0091 6.35737 12.3999C5.66876 12.7907 5.11546 13.3773 4.76968 14.0833C4.4239 14.7893 4.3017 15.5818 4.41904 16.3574C4.53637 17.133 4.88778 17.8557 5.42741 18.4311C5.96705 19.0065 6.66983 19.4079 7.44405 19.583C8.21827 19.7581 9.02796 19.6987 9.76746 19.4125C10.507 19.1263 11.1419 18.6267 11.5895 17.9789C12.037 17.331 12.2763 16.565 12.2762 15.7808V2.40012ZM6.80663 15.7808C6.80663 15.383 6.96671 15.0014 7.25164 14.7201C7.53657 14.4388 7.92302 14.2807 8.32597 14.2807C8.72892 14.2807 9.11537 14.4388 9.4003 14.7201C9.68523 15.0014 9.84531 15.383 9.84531 15.7808C9.84531 16.1786 9.68523 16.5602 9.4003 16.8415C9.11537 17.1228 8.72892 17.2809 8.32597 17.2809C7.92302 17.2809 7.53657 17.1228 7.25164 16.8415C6.96671 16.5602 6.80663 16.1786 6.80663 15.7808Z"
      fill="#F5F2EA"
    />
  </svg>
