  <svg
    width="32"
    height="35"
    viewBox="0 0 32 35"
    fill="none"
    xmlns="http://www.w3.org/2000/svg"
  >
    <path
      d="M2 8.54492H30M12.5 15.5449V26.0449M19.5 15.5449V26.0449M3.75 8.54492L5.5 29.5449C5.5 30.4732 5.86875 31.3634 6.52513 32.0198C7.1815 32.6762 8.07174 33.0449 9 33.0449H23C23.9283 33.0449 24.8185 32.6762 25.4749 32.0198C26.1313 31.3634 26.5 30.4732 26.5 29.5449L28.25 8.54492M10.75 8.54492V3.29492C10.75 2.83079 10.9344 2.38567 11.2626 2.05748C11.5908 1.7293 12.0359 1.54492 12.5 1.54492H19.5C19.9641 1.54492 20.4092 1.7293 20.7374 2.05748C21.0656 2.38567 21.25 2.83079 21.25 3.29492V8.54492"
      stroke="black"
      stroke-width="2.08333"
      stroke-linecap="round"
      stroke-linejoin="round"
    />
  </svg>
