  <svg
    width="80"
    height="80"
    viewBox="0 0 80 80"
    fill="none"
    xmlns="http://www.w3.org/2000/svg"
  >
    <rect
      x="1"
      y="1"
      width="78"
      height="78"
      rx="39"
      stroke="black"
      stroke-width="2"
    />
    <path
      d="M21.2186 34.3177H57.7811M20.113 35.1722L38.3722 54.0309C38.5049 54.1687 38.6757 54.2803 38.8712 54.3571C39.0667 54.4339 39.2818 54.4738 39.4999 54.4738C39.7179 54.4738 39.933 54.4339 40.1285 54.3571C40.3241 54.2803 40.4948 54.1687 40.6275 54.0309L58.8868 35.1722C59.0663 34.9861 59.1705 34.7609 59.1854 34.5265C59.2003 34.2921 59.1253 34.0596 58.9703 33.86L52.7766 25.899C52.6491 25.7342 52.4708 25.5982 52.2587 25.5037C52.0466 25.4093 51.8076 25.3596 51.5646 25.3594H27.4351C27.1921 25.3596 26.9532 25.4093 26.741 25.5037C26.5289 25.5982 26.3506 25.7342 26.2231 25.899L20.0295 33.86C19.8745 34.0596 19.7994 34.2921 19.8144 34.5265C19.8293 34.7609 19.9334 34.9861 20.113 35.1722Z"
      stroke="black"
      stroke-width="2"
      stroke-linecap="round"
      stroke-linejoin="round"
    />
    <path
      d="M52.1562 26.4792L47.9375 34.3177M47.9375 34.3177L39.5 25.3594L31.0625 34.3177M47.9375 34.3177L39.5 53.3542L31.0625 34.3177M26.8438 26.4792L31.0625 34.3177"
      stroke="black"
      stroke-width="2"
      stroke-linecap="round"
      stroke-linejoin="round"
    />
  </svg>
