<svg width="108" height="144" viewBox="0 0 108 144" fill="none" xmlns="http://www.w3.org/2000/svg">
<g clip-path="url(#clip0_1335_16083)">
<rect width="108" height="144" fill="transparent"/>
<path d="M86.4 111.274C80.406 111.274 75.6 117.472 75.6 125.202C75.6 128.896 76.7379 132.439 78.7633 135.051C80.7886 137.663 83.5357 139.131 86.4 139.131C89.2643 139.131 92.0114 137.663 94.0368 135.051C96.0621 132.439 97.2 128.896 97.2 125.202C97.2 121.508 96.0621 117.965 94.0368 115.353C92.0114 112.741 89.2643 111.274 86.4 111.274ZM0 -0.15332V13.7751H10.8L30.24 66.6333L22.896 83.6956C22.086 85.6456 21.6 87.9438 21.6 90.3812C21.6 94.0753 22.7379 97.618 24.7632 100.23C26.7886 102.842 29.5357 104.31 32.4 104.31H97.2V90.3812H34.668C34.31 90.3812 33.9666 90.1978 33.7134 89.8713C33.4602 89.5448 33.318 89.102 33.318 88.6402C33.318 88.292 33.372 88.0134 33.48 87.8045L38.34 76.4529H78.57C82.62 76.4529 86.184 73.5279 88.02 69.2797L107.352 24.2214C107.73 23.1071 108 21.9232 108 20.7393C108 18.8923 107.431 17.1209 106.418 15.8148C105.406 14.5088 104.032 13.7751 102.6 13.7751H22.734L17.658 -0.15332M32.4 111.274C26.406 111.274 21.6 117.472 21.6 125.202C21.6 128.896 22.7379 132.439 24.7632 135.051C26.7886 137.663 29.5357 139.131 32.4 139.131C35.2643 139.131 38.0114 137.663 40.0368 135.051C42.0621 132.439 43.2 128.896 43.2 125.202C43.2 121.508 42.0621 117.965 40.0368 115.353C38.0114 112.741 35.2643 111.274 32.4 111.274Z" fill="white"/>
</g>
<defs>
<clipPath id="clip0_1335_16083">
<rect width="108" height="144" fill="white"/>
</clipPath>
</defs>
</svg>
