<svg width="150" height="155" viewBox="0 0 150 155" fill="none" xmlns="http://www.w3.org/2000/svg">
<path d="M75.0004 77.7603C81.5639 77.7603 87.8585 75.1263 92.4995 70.4379C97.1406 65.7495 99.7479 59.3907 99.7479 52.7603C99.7479 46.1298 97.1406 39.771 92.4995 35.0826C87.8585 30.3942 81.5639 27.7603 75.0004 27.7603C68.437 27.7603 62.1424 30.3942 57.5013 35.0826C52.8603 39.771 50.2529 46.1298 50.2529 52.7603C50.2529 59.3907 52.8603 65.7495 57.5013 70.4379C62.1424 75.1263 68.437 77.7603 75.0004 77.7603ZM44.9499 84.9031C41.6682 84.9031 38.5209 86.2201 36.2004 88.5643C33.8798 90.9085 32.5762 94.0879 32.5762 97.4031V99.1888C32.5762 107.735 37.9605 114.964 45.6039 119.878C53.2898 124.821 63.6944 127.76 75.0004 127.76C86.3065 127.76 96.7075 124.821 104.397 119.878C112.04 114.964 117.425 107.735 117.425 99.1888V97.4031C117.425 94.0879 116.121 90.9085 113.8 88.5643C111.48 86.2201 108.333 84.9031 105.051 84.9031H44.9499Z" fill="white"/>
</svg>
