<svg width="150" height="128" viewBox="0 0 150 128" fill="none" xmlns="http://www.w3.org/2000/svg">
<path d="M75 56.0765C79.1421 56.0765 82.5 52.5288 82.5 48.1525C82.5 43.7762 79.1421 40.2285 75 40.2285C70.8579 40.2285 67.5 43.7762 67.5 48.1525C67.5 52.5288 70.8579 56.0765 75 56.0765Z" fill="white"/>
<path d="M75 8.53442C54.3234 8.53442 37.5 25.5338 37.5 46.421C37.5 56.368 41.7914 69.5961 50.2547 85.7388C57.0516 98.6994 64.9148 110.419 69.0047 116.251C69.6958 117.247 70.5994 118.058 71.6422 118.616C72.6851 119.175 73.8378 119.466 75.007 119.466C76.1762 119.466 77.329 119.175 78.3718 118.616C79.4147 118.058 80.3183 117.247 81.0094 116.251C85.0922 110.419 92.9625 98.6994 99.7594 85.7388C108.209 69.6011 112.5 56.373 112.5 46.421C112.5 25.5338 95.6766 8.53442 75 8.53442ZM75 64.0023C72.0333 64.0023 69.1332 63.0728 66.6664 61.3314C64.1997 59.59 62.2771 57.1149 61.1418 54.2191C60.0065 51.3232 59.7094 48.1367 60.2882 45.0625C60.867 41.9883 62.2956 39.1645 64.3934 36.9481C66.4912 34.7317 69.1639 33.2224 72.0736 32.6109C74.9834 31.9994 77.9994 32.3132 80.7402 33.5127C83.4811 34.7122 85.8238 36.7435 87.472 39.3497C89.1203 41.9559 90 45.0199 90 48.1543C89.9957 52.3561 88.4139 56.3844 85.6018 59.3555C82.7897 62.3265 78.9769 63.9977 75 64.0023Z" fill="white"/>
</svg>
