<svg width="166" height="150" viewBox="0 0 166 150" fill="none" xmlns="http://www.w3.org/2000/svg">
<g clip-path="url(#clip0_1335_16384)">
<path d="M110.415 75.3643C106.032 75.3643 101.908 72.7451 99.6771 68.5545L82.9993 37.5322L66.3474 68.5545C64.0908 72.7742 59.9668 75.3934 55.5833 75.3934C54.4161 75.3934 53.2489 75.2188 52.1336 74.8404L16.5993 63.4326V115.233C16.5993 119.511 19.193 123.236 22.8761 124.255L78.953 139.999C81.5986 140.726 84.3739 140.726 86.9936 139.999L143.122 124.255C146.805 123.207 149.399 119.482 149.399 115.233V63.4326L113.865 74.8113C112.75 75.1897 111.582 75.3643 110.415 75.3643ZM165.558 42.7123L152.2 12.7959C151.396 10.9916 149.659 9.94396 147.869 10.2059L82.9993 19.4893L106.784 63.7528C107.77 65.5862 109.741 66.4592 111.582 65.8772L162.913 49.4348C165.48 48.5908 166.725 45.3897 165.558 42.7123ZM13.798 12.7959L0.440197 42.7123C-0.752928 45.3897 0.518009 48.5908 3.05988 49.4057L54.3902 65.8481C56.2318 66.4301 58.203 65.557 59.1886 63.7237L82.9993 19.4893L18.1036 10.2059C16.3139 9.97306 14.6021 10.9916 13.798 12.7959Z" fill="#2C4EA5"/>
</g>
<defs>
<clipPath id="clip0_1335_16384">
<rect width="166" height="149" fill="white" transform="translate(0 0.864258)"/>
</clipPath>
</defs>
</svg>
