<svg width="166" height="150" viewBox="0 0 166 150" fill="none" xmlns="http://www.w3.org/2000/svg">
<path d="M149.401 70.5218L117.584 47.5509V31.9059C117.754 28.7704 116.531 25.7024 114.184 23.3748C111.837 21.0473 108.558 19.6499 105.065 19.4893H26.2151C22.7468 19.6815 19.5026 21.0925 17.1852 23.4165C14.8678 25.7406 13.6639 28.7907 13.8343 31.9059V93.9893C13.7701 96.4546 14.5252 98.8813 16.0034 100.96C17.4816 103.039 19.6159 104.675 22.1343 105.661C20.8604 108.458 20.364 111.491 20.6877 114.499C21.0115 117.507 22.1457 120.399 23.9926 122.925C25.8394 125.452 28.3434 127.537 31.2885 129.001C34.2335 130.465 37.5312 131.264 40.897 131.329C44.2628 131.394 47.5956 130.722 50.6079 129.373C53.6201 128.023 56.2213 126.036 58.187 123.583C60.1527 121.13 61.424 118.284 61.891 115.292C62.358 112.299 62.0067 109.249 60.8676 106.406H104.858C103.72 109.219 103.354 112.237 103.792 115.204C104.229 118.171 105.457 120.999 107.371 123.45C109.284 125.901 111.828 127.902 114.785 129.283C117.743 130.664 121.028 131.385 124.363 131.385C127.697 131.385 130.982 130.664 133.94 129.283C136.898 127.902 139.441 125.901 141.355 123.45C143.268 120.999 144.496 118.171 144.933 115.204C145.371 112.237 145.005 109.219 143.868 106.406H145.251C147.085 106.406 148.845 105.752 150.142 104.588C151.439 103.423 152.168 101.844 152.168 100.198V75.3643C152.146 74.4215 151.886 73.4955 151.407 72.6564C150.928 71.8173 150.241 71.0873 149.401 70.5218ZM138.334 78.3443V93.9893H117.584V63.4443L138.334 78.3443ZM48.4176 112.614C48.4176 113.842 48.0119 115.042 47.2519 116.063C46.4919 117.084 45.4117 117.88 44.1478 118.35C42.884 118.82 41.4932 118.943 40.1515 118.703C38.8098 118.464 37.5774 117.872 36.6101 117.004C35.6428 116.136 34.984 115.03 34.7172 113.825C34.4503 112.621 34.5872 111.373 35.1108 110.238C35.6343 109.104 36.5208 108.134 37.6582 107.452C38.7957 106.77 40.1329 106.406 41.5009 106.406C43.3353 106.406 45.0946 107.06 46.3917 108.224C47.6889 109.389 48.4176 110.968 48.4176 112.614ZM131.418 112.614C131.418 113.842 131.012 115.042 130.252 116.063C129.492 117.084 128.412 117.88 127.148 118.35C125.884 118.82 124.493 118.943 123.152 118.703C121.81 118.464 120.577 117.872 119.61 117.004C118.643 116.136 117.984 115.03 117.717 113.825C117.45 112.621 117.587 111.373 118.111 110.238C118.634 109.104 119.521 108.134 120.658 107.452C121.796 106.77 123.133 106.406 124.501 106.406C126.335 106.406 128.095 107.06 129.392 108.224C130.689 109.389 131.418 110.968 131.418 112.614Z" fill="#2C4EA5"/>
</svg>
