<svg width="166" height="150" viewBox="0 0 166 150" fill="none" xmlns="http://www.w3.org/2000/svg">
<path d="M41.5 19.4893C38.0417 19.4893 35.275 20.7309 33.2 23.2143L24.2083 33.1476C22.1333 35.6309 20.75 38.1143 20.75 41.2184V118.823C20.75 125.652 26.975 131.239 34.5833 131.239H91.9917C90.6083 127.514 89.9167 123.168 89.9167 118.823C89.9167 98.3351 108.592 81.5726 131.417 81.5726C136.258 81.5726 141.1 82.1934 145.25 83.4351V41.2184C145.25 38.1143 143.867 35.6309 141.792 33.1476L132.108 22.5934C130.725 20.7309 127.958 19.4893 124.5 19.4893H41.5ZM40.8083 25.6976H123.808L130.033 31.9059H35.275L40.8083 25.6976ZM41.5 93.9893H83V112.614H41.5V93.9893ZM147.325 98.9559L122.425 121.306L111.358 111.373L103.75 118.823L123.117 137.448L156.317 107.648L147.325 98.9559Z" fill="#2C4EA5"/>
</svg>
